<svg xmlns="http://www.w3.org/2000/svg" xmlns:xlink="http://www.w3.org/1999/xlink" width="93.505" height="26.224" viewBox="0 0 93.505 26.224">
  <defs>
    <clipPath id="clip-path">
      <rect id="Rectangle_18403" data-name="Rectangle 18403" width="93.505" height="26.224" fill="#292929"/>
    </clipPath>
    <clipPath id="clip-path-2">
      <rect id="Rectangle_18404" data-name="Rectangle 18404" width="93.505" height="26.224" fill="none"/>
    </clipPath>
  </defs>
  <g id="appstore" transform="translate(0 0)">
    <g id="Groupe_163" data-name="Groupe 163" transform="translate(0 0)">
      <g id="Groupe_162" data-name="Groupe 162" clip-path="url(#clip-path)">
        <path id="Tracé_11051" data-name="Tracé 11051" d="M89.9,26.228H3.606A3.606,3.606,0,0,1,0,22.623V3.61A3.606,3.606,0,0,1,3.606,0H89.9A3.606,3.606,0,0,1,93.505,3.61V22.623A3.606,3.606,0,0,1,89.9,26.228" transform="translate(0 -0.004)" fill="#fff"/>
        <path id="Tracé_11052" data-name="Tracé 11052" d="M1568.025,639.733l-.952,2.883h-1.224l3.114-9.166h1.428l3.128,9.166h-1.265l-.979-2.883Zm3.005-.925-.9-2.637c-.2-.6-.34-1.143-.476-1.673h-.027c-.136.544-.286,1.1-.462,1.659l-.9,2.652Z" transform="translate(-1536.477 -621.568)" fill="#292929"/>
        <path id="Tracé_11053" data-name="Tracé 11053" d="M2039.545,765.55c0-.843-.027-1.522-.054-2.148h1.074l.054,1.128h.027a2.589,2.589,0,0,1,2.339-1.278c1.591,0,2.788,1.346,2.788,3.345,0,2.366-1.441,3.535-2.991,3.535a2.309,2.309,0,0,1-2.026-1.033h-.027v3.576h-1.183Zm1.183,1.755a2.709,2.709,0,0,0,.054.489,1.847,1.847,0,0,0,1.8,1.4c1.265,0,2-1.034,2-2.543,0-1.319-.693-2.448-1.958-2.448a1.911,1.911,0,0,0-1.808,1.483,1.931,1.931,0,0,0-.082.489Z" transform="translate(-2001.234 -748.935)" fill="#292929"/>
        <path id="Tracé_11054" data-name="Tracé 11054" d="M2452.255,765.55c0-.843-.027-1.522-.054-2.148h1.074l.054,1.128h.027a2.588,2.588,0,0,1,2.339-1.278c1.591,0,2.788,1.346,2.788,3.345,0,2.366-1.441,3.535-2.991,3.535a2.309,2.309,0,0,1-2.026-1.033h-.027v3.576h-1.183Zm1.183,1.755a2.687,2.687,0,0,0,.054.489,1.847,1.847,0,0,0,1.795,1.4c1.265,0,2-1.034,2-2.543,0-1.319-.693-2.448-1.958-2.448a1.91,1.91,0,0,0-1.808,1.483,1.931,1.931,0,0,0-.082.489Z" transform="translate(-2406.203 -748.935)" fill="#292929"/>
        <path id="Tracé_11055" data-name="Tracé 11055" d="M2999.4,633.355a4.19,4.19,0,0,0,2.122.6c1.21,0,1.917-.64,1.917-1.564,0-.857-.49-1.346-1.727-1.821-1.5-.53-2.42-1.305-2.42-2.6,0-1.428,1.183-2.489,2.964-2.489a4.162,4.162,0,0,1,2.026.45l-.326.966a3.64,3.64,0,0,0-1.74-.435c-1.251,0-1.727.747-1.727,1.373,0,.857.557,1.278,1.822,1.768,1.55.6,2.339,1.345,2.339,2.692,0,1.415-1.047,2.639-3.209,2.639a4.747,4.747,0,0,1-2.339-.585Z" transform="translate(-2942.841 -613.748)" fill="#292929"/>
        <path id="Tracé_11056" data-name="Tracé 11056" d="M3339.313,670.46v1.89h1.713v.911h-1.713v3.549c0,.816.231,1.279.9,1.279a2.653,2.653,0,0,0,.693-.082l.054.9a2.926,2.926,0,0,1-1.061.164,1.657,1.657,0,0,1-1.292-.5,2.436,2.436,0,0,1-.463-1.713v-3.59h-1.02v-.911h1.02v-1.578Z" transform="translate(-3274.526 -657.884)" fill="#292929"/>
        <path id="Tracé_11057" data-name="Tracé 11057" d="M3593.79,766.638a3.217,3.217,0,0,1-3.277,3.495,3.129,3.129,0,0,1-3.155-3.386,3.214,3.214,0,0,1,3.264-3.494,3.117,3.117,0,0,1,3.168,3.386m-5.222.068c0,1.442.829,2.53,2,2.53,1.142,0,2-1.075,2-2.557,0-1.115-.558-2.53-1.972-2.53s-2.026,1.305-2.026,2.557" transform="translate(-3520.066 -748.935)" fill="#292929"/>
        <path id="Tracé_11058" data-name="Tracé 11058" d="M4008.091,765.454c0-.775-.014-1.441-.055-2.053h1.047l.041,1.292h.054a1.975,1.975,0,0,1,1.822-1.442,1.275,1.275,0,0,1,.34.041v1.128a1.772,1.772,0,0,0-.408-.041,1.678,1.678,0,0,0-1.6,1.537,3.346,3.346,0,0,0-.054.557v3.509h-1.183Z" transform="translate(-3932.854 -748.935)" fill="#292929"/>
        <path id="Tracé_11059" data-name="Tracé 11059" d="M4216.635,766.909a2.109,2.109,0,0,0,2.257,2.285,4.324,4.324,0,0,0,1.822-.34l.2.856a5.329,5.329,0,0,1-2.189.409,3.057,3.057,0,0,1-3.236-3.318c0-1.985,1.17-3.549,3.087-3.549,2.148,0,2.72,1.89,2.72,3.1a4.468,4.468,0,0,1-.041.557Zm3.508-.856a1.7,1.7,0,0,0-1.66-1.945,1.984,1.984,0,0,0-1.835,1.945Z" transform="translate(-4136.418 -748.935)" fill="#292929"/>
      </g>
    </g>
    <text id="Telecharger_sur" data-name="Telecharger sur" transform="translate(30.714 8.779)" font-size="6" font-family="OpenSans-Bold, Open Sans" font-weight="700"><tspan x="0" y="0">Telecharger sur</tspan></text>
    <g id="Groupe_165" data-name="Groupe 165" transform="translate(0 0)">
      <g id="Groupe_164" data-name="Groupe 164" clip-path="url(#clip-path-2)">
        <path id="Tracé_11060" data-name="Tracé 11060" d="M474.091,375.508a.392.392,0,0,1,.3.518c-.84,2.371-2.314,4.211-3.991,4.211a2.882,2.882,0,0,1-1.431-.4,3.029,3.029,0,0,0-3.012,0,2.875,2.875,0,0,1-1.429.4c-2.614,0-4.733-4.466-4.733-8.446s2.119-5.965,4.733-5.965a3.888,3.888,0,0,1,1.845.464,2.3,2.3,0,0,0,2.18,0,3.876,3.876,0,0,1,1.847-.466,4.307,4.307,0,0,1,3.8,2.125.4.4,0,0,1-.258.59,3.552,3.552,0,0,0,.145,6.967" transform="translate(-451.169 -358.964)" fill="#292929"/>
        <path id="Tracé_11061" data-name="Tracé 11061" d="M853.708,135.373a3.5,3.5,0,0,1-2.644,1.513,3.791,3.791,0,0,1,3.323-4.483,3.5,3.5,0,0,1-.678,2.97" transform="translate(-834.999 -129.919)" fill="#292929"/>
      </g>
    </g>
  </g>
</svg>
