<svg xmlns="http://www.w3.org/2000/svg" width="31" height="31" viewBox="0 0 31 31">
  <g id="Groupe_17614" data-name="Groupe 17614" transform="translate(-135 -482)">
    <circle id="Ellipse_38" data-name="Ellipse 38" cx="15.5" cy="15.5" r="15.5" transform="translate(135 482)" fill="#3d6ad6"/>
    <g id="_x30_1._Facebook" transform="translate(146.341 490.317)">
      <path id="Icon_11_" d="M30.607,18.36h-1.84c-.29,0-.393-.1-.393-.4q0-1.123,0-2.245c0-.288.109-.4.4-.4h1.837c0-.051,0-1.132,0-1.629a4.063,4.063,0,0,1,.505-2.084,3.069,3.069,0,0,1,1.653-1.373A4.086,4.086,0,0,1,34.182,10H36c.261,0,.377.116.377.378q0,1.056,0,2.112c0,.265-.111.372-.378.375-.5.005-1,0-1.492.022a.676.676,0,0,0-.766.764c-.012.549,0,1.1,0,1.669h2.143c.3,0,.407.1.407.409q0,1.116,0,2.233c0,.3-.1.4-.4.4H33.733v6.024c0,.321-.1.424-.418.424H31c-.28,0-.389-.109-.389-.389C30.607,22.457,30.607,18.429,30.607,18.36Z" transform="translate(-28.374 -9.999)" fill="#fff"/>
    </g>
  </g>
</svg>
