<svg xmlns="http://www.w3.org/2000/svg" xmlns:xlink="http://www.w3.org/1999/xlink" width="93.505" height="26.224" viewBox="0 0 93.505 26.224">
  <defs>
    <clipPath id="clip-path">
      <rect id="Rectangle_18406" data-name="Rectangle 18406" width="93.505" height="26.224" fill="none"/>
    </clipPath>
  </defs>
  <g id="google_play" data-name="google play" transform="translate(0 0)">
    <g id="Groupe_168" data-name="Groupe 168" transform="translate(0 0)">
      <g id="Groupe_167" data-name="Groupe 167" clip-path="url(#clip-path)">
        <path id="Tracé_11062" data-name="Tracé 11062" d="M91.2,26.229H2.306A2.306,2.306,0,0,1,0,23.923V2.311A2.306,2.306,0,0,1,2.306,0H91.2a2.306,2.306,0,0,1,2.306,2.306V23.923A2.306,2.306,0,0,1,91.2,26.229" transform="translate(0 -0.005)" fill="#fff"/>
        <path id="Tracé_11063" data-name="Tracé 11063" d="M322.6,231.412l-3.17,3.17-8.172-8.174a1.247,1.247,0,0,1,1.746-.536Z" transform="translate(-305.415 -221.469)" fill="#00ff7c"/>
        <path id="Tracé_11064" data-name="Tracé 11064" d="M753.715,534.3l-3.621,2.091-3.17-3.168,3.17-3.17,3.621,2.091a1.244,1.244,0,0,1,0,2.156" transform="translate(-732.914 -520.108)" fill="#ffd001"/>
        <path id="Tracé_11065" data-name="Tracé 11065" d="M313.022,271.462l-8.172,8.172a1.23,1.23,0,0,1-.122-.541V263.83a1.235,1.235,0,0,1,.122-.542Z" transform="translate(-299.011 -258.349)" fill="#00d3ff"/>
        <path id="Tracé_11066" data-name="Tracé 11066" d="M322.6,702.192l-9.6,5.542a1.246,1.246,0,0,1-1.746-.538l8.172-8.172Z" transform="translate(-305.415 -685.912)" fill="#ff2132"/>
        <path id="Tracé_11067" data-name="Tracé 11067" d="M1494.662,612.373a7.8,7.8,0,0,1-2.562.457,3.917,3.917,0,0,1-4.282-4.207,4.184,4.184,0,0,1,4.517-4.306,5.153,5.153,0,0,1,2.079.384l-.26.879a4.33,4.33,0,0,0-1.844-.359,3.119,3.119,0,0,0-3.353,3.353,3.057,3.057,0,0,0,3.217,3.366,3.526,3.526,0,0,0,1.436-.223V609.23h-1.7v-.866h2.747Z" transform="translate(-1459.91 -592.981)" fill="#292929"/>
        <path id="Tracé_11068" data-name="Tracé 11068" d="M1924.668,730.133a2.927,2.927,0,0,1-2.982,3.18,2.847,2.847,0,0,1-2.871-3.081,2.924,2.924,0,0,1,2.97-3.18,2.836,2.836,0,0,1,2.883,3.081m-4.751.061c0,1.312.755,2.3,1.819,2.3,1.04,0,1.819-.978,1.819-2.326,0-1.015-.508-2.3-1.794-2.3s-1.844,1.188-1.844,2.326" transform="translate(-1882.822 -713.414)" fill="#292929"/>
        <path id="Tracé_11069" data-name="Tracé 11069" d="M2287.018,730.133a2.927,2.927,0,0,1-2.982,3.18,2.847,2.847,0,0,1-2.871-3.081,2.924,2.924,0,0,1,2.97-3.18,2.836,2.836,0,0,1,2.883,3.081m-4.752.061c0,1.312.755,2.3,1.819,2.3,1.04,0,1.819-.978,1.819-2.326,0-1.015-.507-2.3-1.794-2.3s-1.844,1.188-1.844,2.326" transform="translate(-2238.375 -713.414)" fill="#292929"/>
        <path id="Tracé_11070" data-name="Tracé 11070" d="M2649.109,727.188c-.024.433-.049.916-.049,1.645v3.477a3.442,3.442,0,0,1-.854,2.734,3.173,3.173,0,0,1-2.178.718,3.869,3.869,0,0,1-1.992-.495l.272-.829a3.382,3.382,0,0,0,1.757.47c1.114,0,1.93-.581,1.93-2.091v-.668h-.025a2.139,2.139,0,0,1-1.906,1,2.676,2.676,0,0,1-2.549-2.92,2.874,2.874,0,0,1,2.7-3.18,1.992,1.992,0,0,1,1.868,1.039h.025l.049-.9Zm-1.126,2.364a1.593,1.593,0,0,0-1.584-1.646c-1.04,0-1.782.879-1.782,2.265,0,1.175.594,2.153,1.77,2.153a1.592,1.592,0,0,0,1.51-1.115,1.888,1.888,0,0,0,.087-.581Z" transform="translate(-2593.929 -713.414)" fill="#292929"/>
        <rect id="Rectangle_18405" data-name="Rectangle 18405" width="1.089" height="8.786" transform="translate(56.941 10.977)" fill="#292929"/>
        <path id="Tracé_11071" data-name="Tracé 11071" d="M3169.281,730.38a1.919,1.919,0,0,0,2.054,2.08,3.941,3.941,0,0,0,1.658-.309l.185.779a4.846,4.846,0,0,1-1.992.372,2.782,2.782,0,0,1-2.945-3.02c0-1.807,1.064-3.229,2.809-3.229a2.537,2.537,0,0,1,2.475,2.821,4.073,4.073,0,0,1-.037.507Zm3.193-.779a1.55,1.55,0,0,0-1.51-1.769,1.8,1.8,0,0,0-1.67,1.769Z" transform="translate(-3108.813 -713.414)" fill="#292929"/>
      </g>
    </g>
    <text id="Disponible_sur" data-name="Disponible sur" transform="translate(27.669 8.74)" fill="#292929" font-size="6" font-family="OpenSans-Bold, Open Sans" font-weight="700"><tspan x="0" y="0">Disponible sur</tspan></text>
    <g id="Groupe_170" data-name="Groupe 170" transform="translate(0 0)">
      <g id="Groupe_169" data-name="Groupe 169" clip-path="url(#clip-path)">
        <path id="Tracé_11072" data-name="Tracé 11072" d="M3607.688,605.821a12.468,12.468,0,0,1,2.066-.161,3.428,3.428,0,0,1,2.339.693,2.241,2.241,0,0,1,.73,1.744,2.455,2.455,0,0,1-.643,1.782,3.455,3.455,0,0,1-2.549.916,3.728,3.728,0,0,1-.866-.075v3.341h-1.077Zm1.077,4.021a3.63,3.63,0,0,0,.891.087c1.3,0,2.091-.631,2.091-1.781,0-1.1-.779-1.634-1.967-1.634a4.522,4.522,0,0,0-1.015.087Z" transform="translate(-3540.016 -594.299)" fill="#292929"/>
        <rect id="Rectangle_18407" data-name="Rectangle 18407" width="1.089" height="8.786" transform="translate(74.161 10.977)" fill="#292929"/>
        <path id="Tracé_11073" data-name="Tracé 11073" d="M4088.034,733.177l-.087-.755h-.037a2.23,2.23,0,0,1-1.832.891,1.706,1.706,0,0,1-1.832-1.72c0-1.448,1.287-2.24,3.6-2.228v-.123a1.235,1.235,0,0,0-1.361-1.386,2.986,2.986,0,0,0-1.559.445l-.247-.717a3.719,3.719,0,0,1,1.967-.532c1.832,0,2.277,1.249,2.277,2.449v2.24a8.437,8.437,0,0,0,.1,1.436Zm-.161-3.056c-1.188-.025-2.537.185-2.537,1.348a.964.964,0,0,0,1.027,1.04,1.489,1.489,0,0,0,1.448-1,1.138,1.138,0,0,0,.062-.347Z" transform="translate(-4007.635 -713.414)" fill="#292929"/>
        <path id="Tracé_11074" data-name="Tracé 11074" d="M4381.141,734.3l1.312,3.539c.137.4.285.866.384,1.225h.024c.112-.359.236-.816.384-1.249l1.188-3.514h1.15l-1.633,4.269c-.78,2.054-1.312,3.105-2.054,3.749a2.949,2.949,0,0,1-1.337.705l-.272-.916a2.892,2.892,0,0,0,.953-.532,3.3,3.3,0,0,0,.915-1.212.783.783,0,0,0,.087-.26.937.937,0,0,0-.074-.285l-2.215-5.518Z" transform="translate(-4297.794 -720.529)" fill="#292929"/>
      </g>
    </g>
  </g>
</svg>
