<svg xmlns="http://www.w3.org/2000/svg" width="303.911" height="221.586" viewBox="0 0 303.911 221.586">
  <g id="illustration_modifs_apporte" data-name="illustration modifs apporte" transform="translate(-23.001 -376.308)">
    <g id="freepik--Shadow--inject-209" transform="translate(23.001 565.519)">
      <path id="Tracé_10406" data-name="Tracé 10406" d="M355.6,435c0,8.942-68.028,16.187-151.956,16.187S51.69,443.939,51.69,435s68.028-16.187,151.956-16.187S355.6,426.1,355.6,435Z" transform="translate(-51.69 -418.81)" fill="#f3f3f3"/>
    </g>
    <g id="freepik--Character--inject-209" transform="translate(52.329 376.308)">
      <path id="Tracé_10190" data-name="Tracé 10190" d="M339.91,129.423l.254.063a.152.152,0,0,0-.044-.076h0Z" transform="translate(-281.882 -129.41)" fill="#263238"/>
      <path id="Tracé_10191" data-name="Tracé 10191" d="M371.34,178h0" transform="translate(-332.995 -147.178)" fill="none" stroke="#ff98b9" stroke-linecap="round" stroke-linejoin="round" stroke-width="0"/>
      <rect id="Rectangle_21954" data-name="Rectangle 21954" width="0.006" height="4.466" transform="translate(50.841 19.931)" fill="#dd6a57"/>
      <path id="Tracé_10192" data-name="Tracé 10192" d="M351.64,160.83v0Z" transform="translate(-300.799 -140.899)" fill="#dd6a57"/>
      <path id="Tracé_10193" data-name="Tracé 10193" d="M371.34,178h0" transform="translate(-332.995 -147.178)" fill="none" stroke="#ff98b9" stroke-linecap="round" stroke-linejoin="round" stroke-width="0"/>
      <path id="Tracé_10194" data-name="Tracé 10194" d="M351.64,418.282h.114V418.2Z" transform="translate(-300.913 -235.013)" fill="#dd6a57"/>
      <path id="Tracé_10195" data-name="Tracé 10195" d="M312.04,345.13l1.5,9.026,10.2,55.072h1.643l-7.415-55.072-1.1-9.026Z" transform="translate(-249.426 -208.293)" fill="#dbdbdb"/>
      <path id="Tracé_10196" data-name="Tracé 10196" d="M328.564,345.13H323.73l1.5,9.026h4.428Z" transform="translate(-261.116 -208.293)" fill="#a6a6a6"/>
      <path id="Tracé_10197" data-name="Tracé 10197" d="M362.52,409.229h1.643l10.194-55.072,1.51-9.026h-4.84l-1.091,9.026Z" transform="translate(-331.927 -208.293)" fill="#dbdbdb"/>
      <path id="Tracé_10198" data-name="Tracé 10198" d="M363.611,345.13l-1.091,9.026h4.421l1.51-9.026Z" transform="translate(-324.511 -208.293)" fill="#a6a6a6"/>
      <path id="Tracé_10199" data-name="Tracé 10199" d="M410.74,409.229h1.649l10.194-55.072,1.51-9.026h-4.84l-1.1,9.026Z" transform="translate(-410.74 -208.293)" fill="#dbdbdb"/>
      <path id="Tracé_10200" data-name="Tracé 10200" d="M410.74,354.156h4.428l1.51-9.026h-4.84Z" transform="translate(-403.325 -208.293)" fill="#a6a6a6"/>
      <path id="Tracé_10201" data-name="Tracé 10201" d="M309.87,315.75H384.6v-7.878H356.626l-9.4-54.692h-34.5Z" transform="translate(-307.263 -174.669)" fill="#dbdbdb"/>
      <path id="Tracé_10202" data-name="Tracé 10202" d="M417.07,315.75h4.079l2.651-62.57h-3.876Z" transform="translate(-414.463 -174.669)" fill="#a6a6a6"/>
      <path id="Tracé_10203" data-name="Tracé 10203" d="M343.02,438.568c-1.446.14-40.825-9.287-42.068-10.568-.152-.14.634-3.717,1.77-8.6v-.1c.71-3.1,12.211-28.113,12.211-28.113l25.525,7.143-11.621,23.216s4.8,3.47,8.912,6.768h0a55.265,55.265,0,0,1,5.2,4.44C344.188,434.305,344.467,438.441,343.02,438.568Z" transform="translate(-260.99 -225.136)" fill="#f7a9a0"/>
      <path id="Tracé_10204" data-name="Tracé 10204" d="M343.016,448.927c-1.446.133-40.825-9.287-42.068-10.562-.152-.146.634-3.723,1.77-8.608v-.089a108.292,108.292,0,0,1,4.142-10.149c4.2,1.135,19.258,5.22,24.739,6.914l-2.753,5.506s4.8,3.476,8.919,6.775h0a57.789,57.789,0,0,1,5.2,4.44C344.183,444.665,344.463,448.807,343.016,448.927Z" transform="translate(-260.985 -235.495)" fill="#fff" stroke="#454545" stroke-width="0.5"/>
      <path id="Tracé_10205" data-name="Tracé 10205" d="M342.991,452.321c-1.491.127-40.9-9.407-42.176-10.72-.482-.495.393-6.711,2.537-13.321l25.373,6.172s12.966,10.289,14.209,11.875S344.475,452.207,342.991,452.321Z" transform="translate(-260.827 -238.699)" fill="#454545"/>
      <path id="Tracé_10206" data-name="Tracé 10206" d="M342.3,457.995c-6.572-1.763-33.22-8.246-39.848-9.515-.051,0-.063,0,0,.044,6.476,1.9,33.182,8.145,39.829,9.515C342.412,458.128,342.431,458.027,342.3,457.995Z" transform="translate(-260.318 -246.085)" fill="#263238"/>
      <path id="Tracé_10207" data-name="Tracé 10207" d="M312.356,453.448a5.474,5.474,0,0,0-4.345.634,5.3,5.3,0,0,0-2.328,3.172c0,.038.063.057.082,0a6.343,6.343,0,0,1,6.572-3.768C312.388,453.543,312.407,453.467,312.356,453.448Z" transform="translate(-232.393 -247.831)" fill="#263238"/>
      <path id="Tracé_10208" data-name="Tracé 10208" d="M329.624,439.67c-2.632-.679-5.925-.488-8.088,1.269-.089.07,0,.184.1.165a37.792,37.792,0,0,1,7.954-1.11.171.171,0,0,0,.032-.324Z" transform="translate(-259.766 -242.731)" fill="#263238"/>
      <path id="Tracé_10209" data-name="Tracé 10209" d="M326.707,441.7c-2.639-.672-5.925-.482-8.094,1.269-.082.07,0,.184.1.165a37.792,37.792,0,0,1,7.961-1.11.171.171,0,0,0,.032-.323Z" transform="translate(-254.997 -243.476)" fill="#263238"/>
      <path id="Tracé_10210" data-name="Tracé 10210" d="M323.8,443.733c-2.632-.672-5.925-.482-8.094,1.269-.082.07,0,.19.108.165a37.737,37.737,0,0,1,7.954-1.11.171.171,0,0,0,.032-.323Z" transform="translate(-250.241 -244.218)" fill="#263238"/>
      <path id="Tracé_10211" data-name="Tracé 10211" d="M320.888,445.79c-2.639-.679-5.931-.488-8.094,1.269-.082.063,0,.184.1.165a37.386,37.386,0,0,1,7.935-1.11.171.171,0,0,0,.057-.323Z" transform="translate(-245.479 -244.969)" fill="#263238"/>
      <path id="Tracé_10212" data-name="Tracé 10212" d="M360.415,439.237c-2.969-.71-4.079,3.907-1.1,4.618S363.383,439.948,360.415,439.237Z" transform="translate(-315.079 -242.678)" fill="#263238"/>
      <path id="Tracé_10213" data-name="Tracé 10213" d="M320.8,433.189c-1.9,1.5-4.326,2.131-6.527,2.981a.33.33,0,0,1-.419-.33.076.076,0,0,1-.07-.1,14.349,14.349,0,0,1,4.041-6.185c1.1-.951,3.051-1.63,4.123-.2S321.888,432.32,320.8,433.189Zm.634-2.157c.431-2.943-2.7-1.357-3.482-.634a15.5,15.5,0,0,0-1.4,1.554c-.907,1.123-1.643,2.353-2.436,3.559,1.053-.482,2.138-.869,3.21-1.313,1.294-.52,3.888-1.56,4.129-3.165Z" transform="translate(-247.52 -238.794)" fill="#263238"/>
      <path id="Tracé_10214" data-name="Tracé 10214" d="M326.432,432.869c.634-1.675,2.69-1.573,4.015-.971a14.273,14.273,0,0,1,5.607,4.8.07.07,0,0,1-.032.108c.044.2-.07.457-.317.431-2.347-.19-4.878-.114-7.1-1.021C327.313,435.686,325.842,434.455,326.432,432.869Zm5.779,3.349c1.148.121,2.3.19,3.451.355-1.1-.932-2.15-1.9-3.343-2.728a14.938,14.938,0,0,0-1.77-1.1c-.964-.482-4.409-1.123-3.172,1.579C328.062,435.813,330.834,436.066,332.21,436.219Z" transform="translate(-269.152 -239.875)" fill="#263238"/>
      <path id="Tracé_10215" data-name="Tracé 10215" d="M336.42,380.593l-27.346-8.2s22.538-46.94,21.827-49.363c-.476-1.592-34.254-1.706-44.174-10.6-10.251-9.2-2.271-27.276-2.271-27.276l28.43-.152s-.488,5.931.634,6.857c.71.634,39.563,4.028,47,18.313C367.242,323.129,336.42,380.593,336.42,380.593Z" transform="translate(-266.143 -186.305)" fill="#454545"/>
      <path id="Tracé_10216" data-name="Tracé 10216" d="M317.593,323.074c.121.4-.425,2.093-1.427,4.618l20.425,25.088c7.282-16.6,14.126-35.744,10.574-42.57-7.447-14.279-46.306-17.7-47.01-18.313-1.078-.92-.59-6.857-.59-6.857l-18.04.1L311.5,321.926C315.113,322.319,317.472,322.624,317.593,323.074Z" transform="translate(-252.816 -186.32)" fill="#263238"/>
      <path id="Tracé_10217" data-name="Tracé 10217" d="M344.253,422.568a17.831,17.831,0,0,0-2.233-.831c-.787-.266-1.579-.539-2.372-.793-1.56-.5-3.127-.983-4.7-1.427-3.172-.894-6.343-1.776-9.559-2.588-1.662-.425-5.24-1.351-5.462-1.319-.1,0-.127.2-.032.228,3.089,1.11,6.229,2.055,9.369,3.013s6.267,1.9,9.445,2.7c.882.222,1.77.419,2.651.634a19.079,19.079,0,0,0,2.81.6C344.259,422.8,344.348,422.619,344.253,422.568Z" transform="translate(-273.278 -234.065)" fill="#263238"/>
      <path id="Tracé_10218" data-name="Tracé 10218" d="M317.734,292.074c.089-.951.19-1.9.3-2.842,0-.114.184-.108.171,0-.374,3.844-.768,7.777-.057,11.608a16.543,16.543,0,0,0,5.075,9.191c5.639,5.259,13.517,6.806,20.863,8.056,4.206.717,8.436,1.269,12.686,1.681q3.121.311,6.248.5c2.068.133,4.136.152,6.2.266.634.038,1.237.336,1.135,1.078a5.335,5.335,0,0,1-.495,1.307l-.666,1.51q-1.269,2.81-2.506,5.62-2.588,5.785-5.259,11.538-5.3,11.418-10.993,22.664-.7,1.4-1.415,2.785c-.032.063-.121,0-.089-.051q5.436-11.38,10.739-22.836,2.626-5.709,5.246-11.367,1.269-2.842,2.582-5.709l1.269-2.854c.216-.476.425-.951.634-1.434s.818-1.345.374-1.713c-.3-.247-.913-.159-1.269-.171l-1.649-.057c-1.047-.032-2.087-.076-3.134-.127q-3.172-.159-6.343-.431-6.191-.545-12.344-1.541c-7.295-1.174-15.224-2.5-21.072-7.4a17.6,17.6,0,0,1-5.6-8.17C317.284,299.616,317.4,295.772,317.734,292.074Z" transform="translate(-297.873 -187.822)" fill="#263238"/>
      <path id="Tracé_10219" data-name="Tracé 10219" d="M267.515,393.389c-1.028,1.028-37.368,18.884-39.144,18.694-.2,0-1.9-3.267-4.123-7.758l-.044-.089c-1.421-2.835-14.348-26.718-14.348-26.718L232.462,366.1l13.289,23.235s5.912-.387,11.19-.469h0a57.342,57.342,0,0,1,6.832.1C265.694,389.361,268.548,392.374,267.515,393.389Z" transform="translate(-126.955 -215.961)" fill="#f7a9a0"/>
      <path id="Tracé_10220" data-name="Tracé 10220" d="M258.418,402.973c-1.028,1.028-37.368,18.884-39.144,18.687-.2,0-1.9-3.26-4.123-7.745l-.044-.089c-.1-.2-.2-.4-.3-.634a4.081,4.081,0,0,0-.228-.431l-.336-.634c-.983-1.865-2.6-4.884-4.383-8.2l23.058-11.621,3.742,6.559s5.912-.387,11.19-.469h0a56.819,56.819,0,0,1,6.832.1C256.6,398.945,259.452,401.952,258.418,402.973Z" transform="translate(-117.858 -225.545)" fill="#fff" stroke="#454545" stroke-width="0.5"/>
      <path id="Tracé_10221" data-name="Tracé 10221" d="M255.337,406.46c-1.066,1.047-37.5,18.84-39.328,18.637-.685-.07-3.977-5.423-6.515-11.875L233,401.8s16.543-.349,18.516.089S256.4,405.413,255.337,406.46Z" transform="translate(-114.555 -228.969)" fill="#454545"/>
      <path id="Tracé_10222" data-name="Tracé 10222" d="M248.364,407.31c-6.178,2.835-30.841,14.843-36.734,18.11-.051,0-.032.063,0,.038,6.185-2.67,30.746-14.881,36.791-18.047C248.542,407.348,248.5,407.253,248.364,407.31Z" transform="translate(-108.819 -231.024)" fill="#263238"/>
      <path id="Tracé_10223" data-name="Tracé 10223" d="M223.67,401.708a5.468,5.468,0,0,0-2.924,3.279,5.29,5.29,0,0,0,.228,3.926c0,.032.089,0,.076-.038a6.343,6.343,0,0,1,2.658-7.092C223.758,401.759,223.72,401.689,223.67,401.708Z" transform="translate(-89.688 -228.981)" fill="#263238"/>
      <path id="Tracé_10224" data-name="Tracé 10224" d="M246.594,401.321c-2.461,1.161-4.878,3.406-5.417,6.147a.1.1,0,0,0,.184.063,37.538,37.538,0,0,1,5.423-5.931.171.171,0,0,0-.19-.279Z" transform="translate(-125.927 -228.835)" fill="#263238"/>
      <path id="Tracé_10225" data-name="Tracé 10225" d="M243.034,400.991c-2.461,1.154-4.872,3.406-5.417,6.147a.1.1,0,0,0,.184.057,37.8,37.8,0,0,1,5.423-5.925.171.171,0,0,0-.19-.279Z" transform="translate(-120.108 -228.714)" fill="#263238"/>
      <path id="Tracé_10226" data-name="Tracé 10226" d="M239.477,400.723c-2.461,1.161-4.872,3.406-5.417,6.147a.1.1,0,0,0,.184.063,37.528,37.528,0,0,1,5.423-5.925.172.172,0,1,0-.19-.285Z" transform="translate(-114.318 -228.611)" fill="#263238"/>
      <path id="Tracé_10227" data-name="Tracé 10227" d="M235.974,400.441c-2.461,1.161-4.872,3.406-5.417,6.147a.1.1,0,0,0,.184.063,37.851,37.851,0,0,1,5.423-5.931.171.171,0,0,0-.19-.279Z" transform="translate(-108.57 -228.513)" fill="#263238"/>
      <path id="Tracé_10228" data-name="Tracé 10228" d="M267.691,425.379c-2.734,1.345-.634,5.607,2.093,4.256S270.437,424.028,267.691,425.379Z" transform="translate(-166.161 -237.542)" fill="#263238"/>
      <path id="Tracé_10229" data-name="Tracé 10229" d="M244.573,392.646c-.488,2.347-1.973,4.4-3.127,6.451a.323.323,0,0,1-.533,0,.076.076,0,0,1-.114-.032,14.33,14.33,0,0,1-.831-7.339c.241-1.434,1.313-3.172,3.051-2.778C244.681,389.366,244.878,391.275,244.573,392.646Zm-.875-2.081c-1.541-2.537-2.943.672-3.083,1.744a16.253,16.253,0,0,0-.082,2.081,42.189,42.189,0,0,0,.387,4.294c.507-1.04,1.1-2.03,1.637-3.057.666-1.218,2.017-3.66,1.161-5.062Z" transform="translate(-122.916 -224.295)" fill="#263238"/>
      <path id="Tracé_10230" data-name="Tracé 10230" d="M245.109,407.029c-.59-1.687,1.066-2.924,2.468-3.3a14.285,14.285,0,0,1,7.384.121.07.07,0,0,1,.044.108.33.33,0,0,1,0,.533c-1.9,1.345-3.806,3.026-6.115,3.736C247.583,408.64,245.661,408.627,245.109,407.029Zm6.584-1.1c.964-.634,1.9-1.319,2.886-1.9a42.542,42.542,0,0,0-4.313,0,16.072,16.072,0,0,0-2.068.292c-1.047.235-4.11,1.941-1.434,3.235C248.243,408.266,250.539,406.686,251.693,405.925Z" transform="translate(-136.646 -229.563)" fill="#263238"/>
      <path id="Tracé_10231" data-name="Tracé 10231" d="M351.9,355.987l-27.276,13.625s-21.282-43.267-23.616-46.052c-3.115-3.717-43.654,1.529-53.214-10.473-9.889-12.414-1.421-27.828-1.421-27.828h30.86a25.615,25.615,0,0,1-1.687,8.424s35.287-2.1,45.272,7.612C328.514,308.724,351.9,355.987,351.9,355.987Z" transform="translate(-232.148 -186.4)" fill="#454545"/>
      <path id="Tracé_10232" data-name="Tracé 10232" d="M340.8,300.726a54.467,54.467,0,0,1,4.9-3,20.828,20.828,0,0,1,3.723-1.5c.894-.222,1.269-.285.45.114l-2.271,1.078h.476c.634-.032,1.212-.051,1.821-.07,1.186-.032,2.372,0,3.559-.032,2.41,0,4.8.216,7.2.336a.051.051,0,0,1,0,.1c-2.4-.082-4.8.044-7.2.038-1.193,0-2.379.032-3.565.051h-1.738a14.243,14.243,0,0,1-1.472,0l-.634.317c-1.744.818-3.482,1.681-5.163,2.626a.055.055,0,0,1-.089-.063Z" transform="translate(-302.988 -190.346)" fill="#263238"/>
      <path id="Tracé_10233" data-name="Tracé 10233" d="M363.34,283.381c-.311,1.453-.584,2.918-.945,4.364-.171.634-.33,1.338-.558,1.985-.19.539-.488,1.167-1.11,1.307s-.932-.444-.894-1.04a19.491,19.491,0,0,1,.3-1.985c.121-.755.247-1.51.362-2.265.057-.381.114-.755.165-1.135,0-.1.057-.818.1-1.028a.044.044,0,0,0,.044,0h0a.038.038,0,0,0,.038-.038c0-.057,0-.07-.038-.108a.057.057,0,0,0-.063,0c-.14.076-.14.266-.178.406-.108.368-.216.736-.3,1.11-.178.7-.349,1.4-.5,2.093s-.3,1.408-.45,2.106a3.306,3.306,0,0,0-.082,1.611,1.218,1.218,0,0,0,1.161.882c0,.051-.051.1-.07.146-.057.146-.1.3-.146.444s-.1.3-.133.457a.938.938,0,0,0-.032.222c0,.089,0,.171,0,.254s.171.2.228.07a1.052,1.052,0,0,1,.127-.2,1.172,1.172,0,0,0,.1-.247,3.915,3.915,0,0,0,.114-.438,2.634,2.634,0,0,1,.1-.444.964.964,0,0,0,0-.273,1.611,1.611,0,0,0,.818-.343,2.74,2.74,0,0,0,.818-1.345c.2-.634.349-1.237.495-1.859a27.275,27.275,0,0,0,.768-4.688.133.133,0,0,0-.222-.019Z" transform="translate(-317.491 -185.694)" fill="#263238"/>
      <path id="Tracé_10234" data-name="Tracé 10234" d="M392.813,289.911c-.108.723-.165,1.453-.311,2.163s-.3,1.4-.507,2.087a7.36,7.36,0,0,1-.818,1.9,7.126,7.126,0,0,1-1.351,1.478,12.054,12.054,0,0,1-3.33,2,16.042,16.042,0,0,1-1.865.634,9.068,9.068,0,0,1-1,.209,2.334,2.334,0,0,0-.806.216.165.165,0,0,0,0,.279,2.88,2.88,0,0,0,1.5,0,11.272,11.272,0,0,0,1.592-.336,11.607,11.607,0,0,0,2.988-1.376,9.515,9.515,0,0,0,2.461-2.157A7.226,7.226,0,0,0,392.636,294a14.712,14.712,0,0,0,.311-4.047C392.966,289.841,392.813,289.834,392.813,289.911Z" transform="translate(-361.865 -188.082)" fill="#263238"/>
      <path id="Tracé_10235" data-name="Tracé 10235" d="M274.009,388.938a17.13,17.13,0,0,0-2.195.932c-.755.343-1.516.691-2.265,1.047-1.478.7-2.95,1.434-4.4,2.195-2.924,1.522-5.842,3.07-8.728,4.675-1.5.837-4.732,2.613-4.872,2.791s.038.235.133.19c3.007-1.313,5.937-2.785,8.881-4.244s5.868-2.924,8.728-4.523c.793-.438,1.567-.907,2.353-1.357a19.855,19.855,0,0,0,2.461-1.491C274.168,389.1,274.117,388.906,274.009,388.938Z" transform="translate(-159.767 -224.311)" fill="#263238"/>
      <path id="Tracé_10236" data-name="Tracé 10236" d="M285.738,296.511a.1.1,0,0,1,.2,0c-.057,6.7.977,14.19,6.134,19,5.658,5.271,13.816,5.9,21.155,5.836,4.212-.038,8.424-.146,12.636,0s8.506.343,12.686.875a6.933,6.933,0,0,1,4.32,2.068,22.571,22.571,0,0,1,2.861,4.11q3.172,5.271,6.159,10.65,5.918,10.707,10.961,21.853l1.269,2.778c0,.057-.063.114-.089.051q-5.119-11.189-11.025-21.992-2.931-5.4-6.077-10.7c-.983-1.656-1.935-3.356-3.032-4.941a7.625,7.625,0,0,0-3.857-3.229,15.432,15.432,0,0,0-3.14-.457q-1.618-.152-3.235-.266c-2.1-.152-4.206-.266-6.305-.349-4.25-.152-8.494-.1-12.744,0-7.377.133-15.433-.121-21.567-4.815a17.4,17.4,0,0,1-5.709-7.942,31.327,31.327,0,0,1-1.643-9.972C285.713,298.2,285.719,297.355,285.738,296.511Z" transform="translate(-271.453 -190.477)" fill="#263238"/>
      <path id="Tracé_10237" data-name="Tracé 10237" d="M299.23,342.84c1.5,0,3.007.089,4.516.14a17.514,17.514,0,0,1,3.73.33A4.241,4.241,0,0,1,310.451,345c1.167,1.592,7.5,13.828,10.149,19.252q1.1,2.246,2.182,4.523c.736,1.56,1.389,3.172,2.125,4.726,0,.057-.057.108-.089.051-.634-1.313-1.376-2.582-2.049-3.882s-1.326-2.607-1.979-3.914q-1.979-3.958-3.971-7.923c-1.313-2.613-2.912-5.163-4.25-7.764-1.123-2.195-2.651-5.182-3.723-5.62a17.422,17.422,0,0,0-4.656-1.135c-1.662-.114-3.318-.216-4.979-.362C299.154,342.941,299.154,342.833,299.23,342.84Z" transform="translate(-240.783 -207.455)" fill="#263238"/>
      <path id="Tracé_10238" data-name="Tracé 10238" d="M356.829,200.222c5.4,5.4,3.241,12.522,5.36,16.632,1.269,2.537,5.912,5.417,6.66,8.246,1.224,4.662-2.753,6-2.081,8.538.952,3.59,5.658,3.679,6.064,9.471s-6.343,11.418-21.434,11.9-22.867-5.595-23.032-10.492,4.935-6.134,5.55-9.737c.393-2.3-2.537-4.148-2.385-8.424s4.44-5.347,5.3-8.925-.368-12.528,5.3-16.613S354.158,197.558,356.829,200.222Z" transform="translate(-307.244 -154.487)" fill="#263238"/>
      <path id="Tracé_10239" data-name="Tracé 10239" d="M326.4,201.634a12.427,12.427,0,0,1,3.508,4.726A27.275,27.275,0,0,1,331.6,212.4a16.411,16.411,0,0,0,.888,3.609,8.945,8.945,0,0,0,1.821,2.626c1.5,1.592,3.349,2.848,4.675,4.605s2.169,3.806,1.459,5.906a22.224,22.224,0,0,1-1.776,3.051,2.723,2.723,0,0,0,0,3.172,21.519,21.519,0,0,0,2.537,1.859,9.344,9.344,0,0,1,2.017,2.277,7.339,7.339,0,0,1,.939,5.855c-1.237,4.586-5.8,6.9-9.959,8.246l-1.744.558c-.089,0-.152-.108-.057-.14,4.18-1.5,9.033-3.267,10.929-7.663a6.851,6.851,0,0,0-.235-6.058,8.683,8.683,0,0,0-1.966-2.41c-.767-.634-1.675-1.1-2.461-1.738a2.753,2.753,0,0,1-1.085-2.537,6.781,6.781,0,0,1,1.345-2.886,5.614,5.614,0,0,0,1.193-3.057,6.09,6.09,0,0,0-.97-3.083c-1.123-1.9-2.893-3.172-4.44-4.662a10.149,10.149,0,0,1-3.254-5.316c-.228-1.085-.336-2.2-.527-3.3a27.258,27.258,0,0,0-.666-3.019,14.151,14.151,0,0,0-2.759-5.455,8.248,8.248,0,0,0-1.155-1.1C326.3,201.672,326.359,201.6,326.4,201.634Z" transform="translate(-277.503 -155.817)" fill="#263238"/>
      <path id="Tracé_10240" data-name="Tracé 10240" d="M379.4,243.766a5.607,5.607,0,0,1,1.205-2.1,23.448,23.448,0,0,1,1.859-1.694,4.206,4.206,0,0,0,1.377-1.9,4.047,4.047,0,0,0-.45-2.747,19.78,19.78,0,0,1-1.135-2.7,9.514,9.514,0,0,1-.362-2.835,9.635,9.635,0,0,1,1.935-5.443c.571-.793,1.205-1.548,1.782-2.334a11.988,11.988,0,0,0,1.548-2.8c.85-2.2,1.173-4.561,1.9-6.8a35.52,35.52,0,0,1,2.95-6.6c0-.051.1,0,.076.057a31.3,31.3,0,0,0-2.594,5.963c-.634,1.96-.964,3.984-1.472,5.982a15.19,15.19,0,0,1-.983,2.854,15.593,15.593,0,0,1-1.491,2.4,13.828,13.828,0,0,0-2.728,5.075,9.16,9.16,0,0,0,.533,5.671c.672,1.541,1.649,3.267.831,4.954-.7,1.427-2.169,2.207-3.172,3.356a5.931,5.931,0,0,0-1.37,4.65c.482,4.244,4.523,6.641,8.43,7.149a.1.1,0,0,1,0,.19c-3.413-.3-7.009-2.087-8.367-5.4A7.244,7.244,0,0,1,379.4,243.766Z" transform="translate(-358.669 -157.339)" fill="#263238"/>
      <path id="Tracé_10241" data-name="Tracé 10241" d="M307.555,211.577l-6.635,18.059c-.26.526-.032,1,.5,1.053L311,231.7a1.554,1.554,0,0,0,1.434-.85l6.61-18.047a.672.672,0,0,0-.508-1.053l-9.578-1.015a1.561,1.561,0,0,0-1.4.837Z" transform="translate(-236.079 -159.15)" fill="#37474f"/>
      <path id="Tracé_10242" data-name="Tracé 10242" d="M305.741,211.757,299.1,229.817c-.254.527-.032,1,.507,1.053l9.572,1.04a1.554,1.554,0,0,0,1.434-.844L317.254,213c.254-.526.032-1-.507-1.053l-9.572-1.009A1.548,1.548,0,0,0,305.741,211.757Z" transform="translate(-233.124 -159.222)" fill="#455a64"/>
      <path id="Tracé_10243" data-name="Tracé 10243" d="M314.94,213.469a.818.818,0,1,1-.7-.913.818.818,0,0,1,.7.913Z" transform="translate(-239.792 -159.812)" fill="#263238"/>
      <path id="Union_5" data-name="Union 5" d="M18.565,1.519c-7.453,5.155-14.436,15.8-16.43,22.259A28.082,28.082,0,0,0,.151,33.666,20.234,20.234,0,0,0,.7,37.745C1.269,41.131,1.763,42.52.367,46.3c-1.071,2.9.319,4.82,2.7,2.677a10.593,10.593,0,0,0,2.214-2.87,22.82,22.82,0,0,0,5.727,4.3c2.271,1.231,6.377,1.377,3.4-1.979-2.116-2.384-4.174-3.261-5.151-4.872h.009c3.716,1.649,9.626,3.379,10.762,1.055.931-1.906-1.729-3.064-1.729-3.064s3.176.379,3.645-1.519c.423-1.726-1.691-2.535-1.691-2.535s1.966-.1,2.056-1.846c.094-1.831-3.052-1.639-5.006-3.038a9.848,9.848,0,0,0-.669-4.279c3.784-4.183,7.573-9.6,8.136-9.489,2.539.491,11.5,10.152,18,16.736,7.277,7.364,7.006-1.058,5.393-5.9C44.081,17.523,33.636,1.132,28.618.495A34.019,34.019,0,0,0,23.958,0,9.263,9.263,0,0,0,18.565,1.519Z" transform="translate(85.804 106.93) rotate(180)" fill="#fff" stroke="#454545" stroke-width="0.5"/>
      <path id="Tracé_10248" data-name="Tracé 10248" d="M320.2,234.987a15.522,15.522,0,0,0-8.881-2.569c-.082,0-.121.063-.044.076a37.894,37.894,0,0,1,8.925,2.537S320.222,235,320.2,234.987Z" transform="translate(-243.741 -167.076)" fill="#263238"/>
      <path id="Tracé_10249" data-name="Tracé 10249" d="M323.3,240.728a17.467,17.467,0,0,0-9.033-2.036c-.076,0-.114.076-.038.082a41.167,41.167,0,0,1,9.058,2S323.322,240.773,323.3,240.728Z" transform="translate(-248.713 -169.354)" fill="#263238"/>
      <path id="Tracé_10250" data-name="Tracé 10250" d="M336.559,247.789l12.553,13.955s-10.409,12.8-16.524,13.822-7.809.051-9.35-.565-11.811-12.433-17.082-28.614c-5-15.294,3.076-9.464,8.754-3.413,3.235,3.451,13.879,12.832,14.374,12.763S336.559,247.789,336.559,247.789Z" transform="translate(-268.426 -168.625)" fill="#199e46"/>
      <path id="Tracé_10251" data-name="Tracé 10251" d="M309.446,259.112c1.979,2.119,3.882,4.3,5.785,6.489.926,1.078,4.44,5.493,5.462,6.743.038.051-.1.159-.14.114-1.028-1.085-4.789-5.462-5.709-6.553-1.846-2.22-3.685-4.44-5.449-6.743C309.351,259.125,309.408,259.074,309.446,259.112Z" transform="translate(-243.051 -176.834)" fill="#263238"/>
      <path id="Tracé_10252" data-name="Tracé 10252" d="M390.547,273.192s-12.433,2.284-35.6-.926c0,0,10.593-28.576,18.326-36.03,3.514-3.394,6.749-2.683,9.394-.247.634.634,8.646,11.894,9.172,15.712.469,3.368-2.436,6.94-2.436,6.94Z" transform="translate(-343.151 -167.628)" fill="#199e46"/>
      <path id="Tracé_10253" data-name="Tracé 10253" d="M358.635,253.192c-.514-1.148-1.066-2.277-1.668-3.375-.685-1.269-1.446-2.442-2.233-3.628,0,0,0-.051.044-.032a31.3,31.3,0,0,1,2.284,3.216c-.247-.577-.488-1.154-.723-1.738,0-.032.044-.051.057,0a18.218,18.218,0,0,1,1.148,2.594c.5.863.971,1.744,1.389,2.651a12.737,12.737,0,0,1,1.269,3.628,6.978,6.978,0,0,1-.5,3.463,11.3,11.3,0,0,1-.926,1.808,7.055,7.055,0,0,1-1.148,1.459h0c.121.425.476,4.44.507,5.328a.051.051,0,0,1-.1,0c-.165-.882-.666-5.284-.634-5.3h0c0-.038.552-.951.812-1.37a14.259,14.259,0,0,0,.863-1.554,7.06,7.06,0,0,0,.736-3.5,11.119,11.119,0,0,0-1.173-3.647Z" transform="translate(-311.365 -172.1)" fill="#263238"/>
      <path id="Union_4" data-name="Union 4" d="M5.454,7.42C-3.432,11.94-.42,15.449,7.061,14.769c5.973-.537,12.488-.869,13.955-.735.341.033-3.008,11.211-4.264,16.234-1.446,2.263-4.727,7.172-5.36,9.293-.748,2.512-1.96,6.451-.194,8.485a4.159,4.159,0,0,0,2.624,1.308s.731,2.559,2.226,2.912a4.728,4.728,0,0,0,2.809-.284s.358,2.58,1.943,2.8a3.885,3.885,0,0,0,2.538-.675,2.621,2.621,0,0,0,2.473,1.678c2.017-.1,5.1-4.391,6.171-6.769C33.039,46.7,33.33,38.132,33.4,35.068a.52.52,0,0,0,.029-.139c.189-2.752,4.21-19.739,3.075-28.761C36.2,3.713,33.62,1.507,32.631.8a6.176,6.176,0,0,0-3.51-.8C23.29,0,12.943,3.611,5.454,7.42Z" transform="translate(37.73 81.228) rotate(180)" fill="#fff" stroke="#454545" stroke-width="0.5"/>
      <path id="Tracé_10256" data-name="Tracé 10256" d="M413.282,172.22a34.214,34.214,0,0,0-3.933,7.5.051.051,0,1,0,.089.038c1.123-2.588,2.74-4.922,3.958-7.466a.07.07,0,0,0-.114-.07Z" transform="translate(-399.155 -145.058)" fill="#263238"/>
      <path id="Tracé_10257" data-name="Tracé 10257" d="M404.85,175.468a7.4,7.4,0,0,0-.831,1.77c-.247.634-.488,1.269-.717,1.947q-.685,1.96-1.269,3.958c0,.057.07.1.1.038.457-1.269.932-2.6,1.446-3.882.254-.634.52-1.269.787-1.9a8.745,8.745,0,0,0,.666-1.84.1.1,0,1,0-.178-.089Z" transform="translate(-386.163 -146.232)" fill="#263238"/>
      <path id="Tracé_10258" data-name="Tracé 10258" d="M396.5,179.736a5.132,5.132,0,0,0-.634,1.637c-.2.6-.4,1.2-.6,1.8-.4,1.2-.806,2.391-1.269,3.571,0,.063.07.1.089.038.463-1.193.939-2.385,1.389-3.59.222-.59.438-1.18.634-1.77a4.974,4.974,0,0,0,.444-1.662.032.032,0,0,0-.051-.019Z" transform="translate(-372.569 -147.81)" fill="#263238"/>
      <path id="Tracé_10259" data-name="Tracé 10259" d="M387.876,224.426l5.5-13.257-18.529-5.328s-4.4,23.47-2.67,27.365,3.647,4.986,4.821,5.455c4.523,1.808,23.559-4.637,29.49-8.938s.666-6.381-3.736-6.128Z" transform="translate(-371.067 -157.358)" fill="#199e46"/>
      <path id="Tracé_10260" data-name="Tracé 10260" d="M383.36,251.133a25.72,25.72,0,0,1,3.444-1.193c1.212-.349,2.448-.558,3.673-.831a.051.051,0,1,1,0,.1c-.774.165-1.541.393-2.3.634h.051a3.762,3.762,0,0,1,.6-.032c.216,0,.425.057.634.076.032,0,.032.057,0,.057a3.081,3.081,0,0,0-.634.044h-.6a8.973,8.973,0,0,0-.926.089l-.4.121c-1.18.33-2.353.729-3.54,1.034C383.341,251.248,383.3,251.159,383.36,251.133Z" transform="translate(-359.789 -173.181)" fill="#263238"/>
      <path id="Tracé_10261" data-name="Tracé 10261" d="M400.1,211.84c2.823.634,5.626,1.357,8.424,2.1,1.37.362,6.768,2.017,8.31,2.474.063,0,0,.184-.051.171-1.459-.317-7.035-1.8-8.4-2.182-2.785-.787-5.557-1.592-8.31-2.487C400.025,211.9,400.05,211.833,400.1,211.84Z" transform="translate(-396.727 -159.552)" fill="#263238"/>
      <path id="Tracé_10262" data-name="Tracé 10262" d="M363.61,230.574c.089.634,2.734,4.948,5.6,5.075.932.038,1.345-5.075,1.345-5.075l.114-.368,1.624-5.157-5.849-4.485-.85-.634s-.355,1.44-.774,3.241l-.057.26a1.5,1.5,0,0,1-.07.292c-.07.266-.133.539-.2.812s-.089.412-.133.634l-.133.634A33.731,33.731,0,0,0,363.61,230.574Z" transform="translate(-329.046 -162.511)" fill="#fff" stroke="#454545" stroke-width="0.5"/>
      <path id="Tracé_10263" data-name="Tracé 10263" d="M363.61,223.184a10.885,10.885,0,0,0,5.849,7.016l1.624-5.151-5.849-4.485-.85-.634S364.029,221.383,363.61,223.184Z" transform="translate(-327.834 -162.511)" fill="#263238"/>
      <path id="Tracé_10264" data-name="Tracé 10264" d="M367.537,209.365c1.212,9.42-4.294,11.215-6.343,11.475-1.846.235-8.157.8-10.339-8.449s1.82-12.788,6.013-13.549S366.319,199.939,367.537,209.365Z" transform="translate(-315.979 -154.743)" fill="#fff" stroke="#454545" stroke-width="0.5"/>
      <path id="Tracé_10265" data-name="Tracé 10265" d="M353.675,212.662a5.711,5.711,0,0,1-.634-.063,1.085,1.085,0,0,1-.634-.2.343.343,0,0,1-.044-.412.844.844,0,0,1,.806-.279,1.269,1.269,0,0,1,.812.349.362.362,0,0,1-.3.6Z" transform="translate(-303.658 -159.499)" fill="#263238"/>
      <path id="Tracé_10266" data-name="Tracé 10266" d="M361.569,213.635c.222-.051.412-.133.634-.2a1.1,1.1,0,0,0,.6-.33.342.342,0,0,0-.044-.412.85.85,0,0,0-.844-.108,1.231,1.231,0,0,0-.723.52.362.362,0,0,0,.381.533Z" transform="translate(-318.036 -159.8)" fill="#263238"/>
      <path id="Tracé_10267" data-name="Tracé 10267" d="M360.7,217.68s-.044.038-.044.063c.108.634.121,1.389-.438,1.675v.038C360.925,219.266,360.9,218.27,360.7,217.68Z" transform="translate(-315.418 -161.688)" fill="#263238"/>
      <path id="Tracé_10268" data-name="Tracé 10268" d="M360.962,216.74c-1.04.057-.856,2.138.114,2.087S361.837,216.7,360.962,216.74Z" transform="translate(-316.343 -161.344)" fill="#263238"/>
      <path id="Tracé_10269" data-name="Tracé 10269" d="M363.088,216.986c-.171.14-.33.362-.546.4s-.463-.152-.634-.343h-.032a.742.742,0,0,0,.634.818c.419.025.634-.362.7-.774C363.234,217.018,363.139,216.917,363.088,216.986Z" transform="translate(-318.87 -161.426)" fill="#263238"/>
      <path id="Tracé_10270" data-name="Tracé 10270" d="M353.486,217a.05.05,0,0,1,.051.051c.038.634.184,1.383.78,1.548v.038C353.594,218.567,353.41,217.59,353.486,217Z" transform="translate(-304.637 -161.439)" fill="#263238"/>
      <path id="Tracé_10271" data-name="Tracé 10271" d="M353.071,215.815c1.028-.165,1.269,1.9.33,2.062S352.233,215.929,353.071,215.815Z" transform="translate(-303.727 -161.002)" fill="#263238"/>
      <path id="Tracé_10272" data-name="Tracé 10272" d="M351.613,215.868c.171.089.362.273.558.26s.368-.26.488-.488h.032c.063.393,0,.818-.393.945s-.634-.2-.774-.584C351.5,215.919,351.537,215.8,351.613,215.868Z" transform="translate(-301.793 -160.942)" fill="#263238"/>
      <path id="Tracé_10273" data-name="Tracé 10273" d="M357.858,226c.159.146.323.349.558.355a1.669,1.669,0,0,0,.691-.2v.032a.856.856,0,0,1-.761.444.691.691,0,0,1-.539-.552C357.782,226,357.832,226,357.858,226Z" transform="translate(-312.174 -164.73)" fill="#263238"/>
      <path id="Tracé_10274" data-name="Tracé 10274" d="M358.221,223.751a2.658,2.658,0,0,1-.913.983,1.186,1.186,0,0,1-.7.159c-.533-.044-.634-.52-.6-.939a2.719,2.719,0,0,1,.127-.634,3.419,3.419,0,0,0,2.087.431Z" transform="translate(-310.145 -163.75)" fill="#263238"/>
      <path id="Tracé_10275" data-name="Tracé 10275" d="M358.758,225.065a1.187,1.187,0,0,1-.7.159c-.533-.044-.634-.52-.6-.939A1.231,1.231,0,0,1,358.758,225.065Z" transform="translate(-311.602 -164.1)" fill="#ff9cbd"/>
      <path id="Tracé_10276" data-name="Tracé 10276" d="M356.32,218.332s.228.945.273,1.4c0,.038-.1.07-.254.1h0a2.176,2.176,0,0,1-2.176-.59c-.038-.044,0-.1.063-.07a3.3,3.3,0,0,0,2.023.362c0-.133-.45-1.611-.381-1.624a3.971,3.971,0,0,1,1.053.127c-.419-1.985-1.161-3.895-1.554-5.88a.063.063,0,0,1,.114-.038,32.5,32.5,0,0,1,1.947,6.261C357.474,218.636,356.5,218.376,356.32,218.332Z" transform="translate(-308.181 -159.644)" fill="#263238"/>
      <path id="Tracé_10277" data-name="Tracé 10277" d="M368.716,206.166c-1.116.419-5.227-1.9-6.978-5.411a9.02,9.02,0,0,1-2.588,5.55,9.235,9.235,0,0,1-4.973,2.823s-.59,4.351-1.3,4.478-5.842-14.456,6.711-15.173c0,0,3.66-.533,6.051,1.51S368.716,206.166,368.716,206.166Z" transform="translate(-317.621 -154.627)" fill="#263238"/>
      <path id="Tracé_10278" data-name="Tracé 10278" d="M375.262,222.483a1.744,1.744,0,0,0,.444.1,1.332,1.332,0,0,0,.45,0,1.268,1.268,0,0,0,.539-.2,1.6,1.6,0,0,0,.349-.292,1.814,1.814,0,0,0,.336-.552L376.747,219s-2.2-2.874-3.514-2.081S373.657,221.995,375.262,222.483Z" transform="translate(-339.943 -161.36)" fill="#fff" stroke="#454545" stroke-width="0.5"/>
      <path id="Tracé_10279" data-name="Tracé 10279" d="M374.129,218.92v.044a4.059,4.059,0,0,1,2.207,2.449.888.888,0,0,0-1.338-.184c-.032,0,0,.063.032.057a.989.989,0,0,1,1.1.3,4.813,4.813,0,0,1,.552.856c.057.1.235.038.19-.076h0C376.831,220.924,375.651,218.971,374.129,218.92Z" transform="translate(-340.307 -162.141)" fill="#263238"/>
      <path id="Tracé_10280" data-name="Tracé 10280" d="M374.586,224.824a.444.444,0,0,0,.856-.216.431.431,0,0,0-.533-.317.438.438,0,0,0-.324.533Z" transform="translate(-339.153 -164.1)" fill="#fff"/>
      <path id="Tracé_10281" data-name="Tracé 10281" d="M376.443,223.926a.311.311,0,1,0,.228-.381A.324.324,0,0,0,376.443,223.926Z" transform="translate(-341.942 -163.829)" fill="#fff"/>
    </g>
    <g id="Groupe_32068" data-name="Groupe 32068" transform="translate(180.366 158.689)">
      <g id="Groupe_32058" data-name="Groupe 32058" transform="translate(19.43 309.799)">
        <g id="Groupe_32056" data-name="Groupe 32056" transform="translate(19.466)">
          <path id="Tracé_16499" data-name="Tracé 16499" d="M2183.663,1815.17l-27.113-3.315v-39.988l27.113-5.137Z" transform="translate(-2156.55 -1766.73)" fill="#454545"/>
          <g id="Groupe_32055" data-name="Groupe 32055" transform="translate(27.113)">
            <path id="Tracé_16500" data-name="Tracé 16500" d="M2521,1813.063l-33.072,2.107v-48.44L2521,1771.3Z" transform="translate(-2487.93 -1766.73)" fill="#454545"/>
            <path id="Tracé_16501" data-name="Tracé 16501" d="M2640.3,1787.77v19.75l11.01.878V1789.29Z" transform="translate(-2627.833 -1786.049)" fill="#f3f3f3"/>
          </g>
        </g>
        <g id="Groupe_32057" data-name="Groupe 32057" transform="translate(0 36.092)">
          <path id="Tracé_16502" data-name="Tracé 16502" d="M2472.918,2277.981l-50.3,3.537V2207.85l50.3,3.537Z" transform="translate(-2381.385 -2207.85)" fill="#199e46"/>
          <path id="Tracé_16503" data-name="Tracé 16503" d="M1959.875,2281.518l-41.235-5.041v-63.925l41.235-4.7Z" transform="translate(-1918.64 -2207.85)" fill="#199e46"/>
          <path id="Tracé_16504" data-name="Tracé 16504" d="M2640.24,2223.15v29.892h16.853v-28.706Z" transform="translate(-2581.199 -2221.898)" fill="#fff"/>
        </g>
      </g>
      <g id="Groupe_32068-2" data-name="Groupe 32068" transform="translate(81.687 294.686)">
        <path id="Tracé_16530" data-name="Tracé 16530" d="M2329.208,941.521a19.585,19.585,0,0,1-18.019,19.3,16.789,16.789,0,0,1-18.13-17,19.576,19.576,0,0,1,18.13-19.309A16.792,16.792,0,0,1,2329.208,941.521Z" transform="translate(-2293.058 -924.483)" fill="#f47016"/>
        <path id="Tracé_16531" data-name="Tracé 16531" d="M2484.1,1098.172a2.076,2.076,0,0,1-1.918-.965l-6.814-10.941a2.335,2.335,0,0,1,.768-3.136,2.169,2.169,0,0,1,3.077.577l4.725,7.595,6.235-12.7a2.334,2.334,0,0,1,3-1.168,2.152,2.152,0,0,1,.976,2.957l-8.057,16.423a2.43,2.43,0,0,1-1.916,1.351Z" transform="translate(-2466.609 -1070.163)" fill="#fff"/>
      </g>
    </g>
  </g>
</svg>
