<svg xmlns="http://www.w3.org/2000/svg" xmlns:xlink="http://www.w3.org/1999/xlink" width="31" height="31" viewBox="0 0 31 31">
  <defs>
    <linearGradient id="linear-gradient" x1="0.119" y1="0.881" x2="0.83" y2="0.17" gradientUnits="objectBoundingBox">
      <stop offset="0" stop-color="#fee411"/>
      <stop offset="0.052" stop-color="#fedb16"/>
      <stop offset="0.138" stop-color="#fec125"/>
      <stop offset="0.248" stop-color="#fe983d"/>
      <stop offset="0.376" stop-color="#fe5f5e"/>
      <stop offset="0.5" stop-color="#fe2181"/>
      <stop offset="1" stop-color="#9000dc"/>
    </linearGradient>
  </defs>
  <g id="instagram" transform="translate(-31 -31)">
    <circle id="Ellipse_36" data-name="Ellipse 36" cx="15.5" cy="15.5" r="15.5" transform="translate(31 31)" fill="url(#linear-gradient)"/>
    <g id="Groupe_17604" data-name="Groupe 17604" transform="translate(37.878 37.871)">
      <path id="Tracé_221" data-name="Tracé 221" d="M142.967,131H136.4a5.308,5.308,0,0,0-5.3,5.3v6.562a5.308,5.308,0,0,0,5.3,5.3h6.562a5.308,5.308,0,0,0,5.3-5.3V136.3A5.308,5.308,0,0,0,142.967,131Zm3.388,11.874a3.4,3.4,0,0,1-3.394,3.394H136.4A3.4,3.4,0,0,1,133,142.874v-6.562a3.4,3.4,0,0,1,3.394-3.394h6.562a3.4,3.4,0,0,1,3.394,3.394Z" transform="translate(-131.1 -131)" fill="#fff"/>
      <path id="Tracé_222" data-name="Tracé 222" d="M196.491,192.1a4.391,4.391,0,1,0,4.391,4.391A4.4,4.4,0,0,0,196.491,192.1Zm0,7.057a2.666,2.666,0,1,1,2.666-2.666A2.669,2.669,0,0,1,196.491,199.157Z" transform="translate(-187.908 -187.902)" fill="#fff"/>
      <circle id="Ellipse_37" data-name="Ellipse 37" cx="0.742" cy="0.742" r="0.742" transform="matrix(0.987, -0.16, 0.16, 0.987, 12.338, 3.334)" fill="#fff"/>
    </g>
  </g>
</svg>
