<svg id="instagram_1384015" xmlns="http://www.w3.org/2000/svg" width="26.354" height="26.354" viewBox="0 0 26.354 26.354">
  <path id="Tracé_11043" data-name="Tracé 11043" d="M212.044,209.522A2.522,2.522,0,1,1,209.522,207,2.522,2.522,0,0,1,212.044,209.522Zm0,0" transform="translate(-196.345 -196.345)" fill="#fff"/>
  <path id="Tracé_11044" data-name="Tracé 11044" d="M147.586,137.229a2.506,2.506,0,0,0-1.436-1.436,4.186,4.186,0,0,0-1.4-.26c-.8-.036-1.037-.044-3.058-.044s-2.26.008-3.058.044a4.189,4.189,0,0,0-1.4.261,2.507,2.507,0,0,0-1.436,1.436,4.188,4.188,0,0,0-.26,1.405c-.036.8-.044,1.037-.044,3.058s.008,2.26.044,3.058a4.186,4.186,0,0,0,.26,1.4,2.506,2.506,0,0,0,1.436,1.436,4.181,4.181,0,0,0,1.405.261c.8.036,1.037.044,3.057.044s2.26-.008,3.058-.044a4.181,4.181,0,0,0,1.405-.261,2.506,2.506,0,0,0,1.436-1.436,4.19,4.19,0,0,0,.261-1.4c.036-.8.044-1.037.044-3.058s-.008-2.26-.044-3.058A4.181,4.181,0,0,0,147.586,137.229Zm-5.9,8.348a3.885,3.885,0,1,1,3.885-3.885A3.885,3.885,0,0,1,141.688,145.577Zm4.039-7.016a.908.908,0,1,1,.908-.908A.908.908,0,0,1,145.727,138.56Zm0,0" transform="translate(-128.511 -128.514)"/>
  <path id="Tracé_11045" data-name="Tracé 11045" d="M13.177,0A13.177,13.177,0,1,0,26.354,13.177,13.178,13.178,0,0,0,13.177,0ZM20.7,16.3a5.551,5.551,0,0,1-.352,1.837,3.869,3.869,0,0,1-2.213,2.213A5.555,5.555,0,0,1,16.3,20.7c-.807.037-1.065.046-3.12.046s-2.313-.009-3.12-.046a5.555,5.555,0,0,1-1.837-.352,3.869,3.869,0,0,1-2.213-2.213A5.55,5.55,0,0,1,5.656,16.3c-.037-.807-.046-1.065-.046-3.12s.009-2.313.046-3.12a5.552,5.552,0,0,1,.351-1.837A3.872,3.872,0,0,1,8.221,6.008a5.556,5.556,0,0,1,1.837-.352c.807-.037,1.065-.046,3.12-.046s2.313.009,3.12.046a5.558,5.558,0,0,1,1.837.351,3.87,3.87,0,0,1,2.213,2.213,5.551,5.551,0,0,1,.352,1.837c.037.807.045,1.065.045,3.12S20.735,15.49,20.7,16.3Zm0,0" fill="#fff"/>
</svg>
