<svg xmlns="http://www.w3.org/2000/svg" width="116.141" height="53.987" viewBox="0 0 116.141 53.987">
  <g id="LOGO_AYNID" data-name="LOGO AYNID" transform="translate(0 0)">
    <g id="AYNID" transform="translate(0 4.168)">
      <path id="N" d="M562.2,43.827V25.178a2.155,2.155,0,0,0-2.18-1.907,2.1,2.1,0,0,0-2.13,2.066v9.692c-.05-.038-.1-.078-.149-.115a12.257,12.257,0,0,0-19.694,9.75c0,.4.02.8.058,1.193A12.258,12.258,0,0,0,557.893,54.3l.021.641a2.247,2.247,0,0,0,1.882,2.11h.687a2.119,2.119,0,0,0,1.741-1.951v-.167l-.021-9.076Zm-4.366,2.032a7.565,7.565,0,0,1-3.831,5.776c-.022.013-.043.025-.065.037a7.571,7.571,0,0,1-11.156-5.813,7.268,7.268,0,0,1-.046-.833,7.576,7.576,0,0,1,11.2-6.648,7.608,7.608,0,0,1,3.125,3.225,7.524,7.524,0,0,1,.817,3.423,7.268,7.268,0,0,1-.046.833" transform="translate(-446.083 -18.987)" fill="#189f47"/>
      <path id="I" d="M494.624,71.613V94.372a2.1,2.1,0,0,1-4.194,0V71.613a2.1,2.1,0,0,1,4.194,0" transform="translate(-406.917 -58.384)" fill="#189f47"/>
      <path id="Y" d="M173.247,70.711l.337.848a0,0,0,0,1,0,0l.916,2.2,2.881,6.91,1.833,4.4,1.768,4.241.72,1.727.406.976.382-.976.678-1.727,1.662-4.241,1.723-4.4,2.708-6.91.845-2.157v0l.367-.935a2.213,2.213,0,0,1,3.951.588,1.684,1.684,0,0,1-.014,1.187l-.012.032-.339.865-.166.422-2.708,6.91-1.723,4.4L187.8,89.308l-.676,1.727-.678,1.729-1.6,4.083-.35.894-.757,1.933-1.508,3.845v0l-.1.269-.617,1.574a.006.006,0,0,1,0,0l-.176.448v0l-.079.2-.534,1.366a.649.649,0,0,1-.14.222,2.256,2.256,0,0,1-1.606.671,2.3,2.3,0,0,1-2.282-2.317l.052-.255.484-1.234.267-.683,1.5-3.83.112-.286.61-1.556a.87.87,0,0,0-.007-.652l-.258-.619-1.7-4.083-.72-1.729-.72-1.727-1.768-4.241-1.325-3.181-.507-1.216-2.881-6.91L169.511,73l-.005-.012-.186-.449a2.2,2.2,0,0,1-.089-.575,2.229,2.229,0,0,1,1.954-2.265,2.17,2.17,0,0,1,1.991.881Z" transform="translate(-140.621 -58.459)" fill="#4d4d4d"/>
      <path id="N-2" data-name="N" d="M363.121,80.438h.005V94.372a2.013,2.013,0,1,1-4.025,0V80.438a6.5,6.5,0,0,0-13.005,0V94.372a2.013,2.013,0,1,1-4.025,0V80.438h.005q-.005-.155-.005-.309V71.613a2.013,2.013,0,1,1,4.025,0,1.971,1.971,0,0,1-.015.247l.015-.012a10.527,10.527,0,0,1,13.005,0,10.6,10.6,0,0,1,1.778,1.778,10.49,10.49,0,0,1,2.247,6.5q0,.155-.005.309" transform="translate(-283.915 -58.384)" fill="#189f47"/>
      <path id="A" d="M32.82,35.926l-.641-1.493-.135-.314-.72-1.684-.718-1.682L28.839,26.62l-1.833-4.283L24.684,16.9l-.556-1.3-1.7-3.979L20.79,7.8l-1.7-3.978-.533-1.245-.221-.518v0l-.066-.154L17.8.822A2.321,2.321,0,0,0,16.1,0c-.025,0-.052,0-.078,0A2.326,2.326,0,0,0,14.2.874l-.4.986-.086.212-.159.386L13,3.826,11.371,7.8,9.809,11.627,8.182,15.606l-.561,1.375L5.432,22.337,3.682,26.62,1.993,30.752l-.686,1.682L.619,34.118l-.284.692s0,0,0,.005l-.289.708s0,0,0,.007a2.056,2.056,0,0,0,.209,1.405,2.3,2.3,0,0,0,2.09,1.159,1.64,1.64,0,0,0,1.234-.423.692.692,0,0,0,.1-.127l.03-.047a1.258,1.258,0,0,0,.1-.2l.526-1.288.773-1.891L5.8,32.434l.688-1.682,1.474-3.609a.845.845,0,0,1,.784-.523H23.832a.845.845,0,0,1,.778.51l1.549,3.621.72,1.682.72,1.684.908,2.122.445,1.039a2.191,2.191,0,0,0,2.338.728,2.125,2.125,0,0,0,1.532-2.053v-.02a.015.015,0,0,0,0-.008M9.922,22.337l2.751-6.731.194-.476,1.43-3.5L15.861,7.8l.238-.672.243.672,1.635,3.824,1.543,3.605,0,0,.157.373,2.881,6.731Z" transform="translate(0)" fill="#4d4d4d"/>
    </g>
    <g id="point_aynid" data-name="point aynid" transform="translate(80.481 0)">
      <path id="Tracé_10" data-name="Tracé 10" d="M7.68.609A1.426,1.426,0,0,1,8.008,2.88l-.086.084L2.85,7.985A1.42,1.42,0,0,1,.6,7.661,5.128,5.128,0,0,1,.117,6.34,5.322,5.322,0,0,1,0,5.23,5.231,5.231,0,0,1,7.68.609Z" transform="translate(0)" fill="#4d4d4d"/>
      <path id="Tracé_11" data-name="Tracé 11" d="M20.118,29.109a5.231,5.231,0,0,1-7.969,4.457,1.415,1.415,0,0,1-.242-2.222L12,31.25l5.154-5.1a1.43,1.43,0,0,1,2.236.293A5.2,5.2,0,0,1,20,28,5.323,5.323,0,0,1,20.118,29.109Z" transform="translate(-9.658 -21.66)" fill="#189f47"/>
    </g>
  </g>
</svg>
