<svg id="logo" xmlns="http://www.w3.org/2000/svg" xmlns:xlink="http://www.w3.org/1999/xlink" width="184.861" height="122.833" viewBox="0 0 184.861 122.833">
  <defs>
    <clipPath id="clip-path">
      <rect id="Rectangle_11" data-name="Rectangle 11" width="184.861" height="122.833" fill="none"/>
    </clipPath>
  </defs>
  <g id="Groupe_1" data-name="Groupe 1" clip-path="url(#clip-path)">
    <path id="Tracé_1" data-name="Tracé 1" d="M20.926,32.531h48.9c5.089.074,10.4.443,14.826,3.172V32.531h70.515V46.1H128.394c-.148,15.416,0,30.758,0,46.174h-18v-46.1H90.629a82.6,82.6,0,0,1,.148,10.474c-.3,4.426-2.065,9-5.753,11.728-3.91,3.1-9.073,3.467-13.868,3.319,6.86,6.86,13.646,13.719,20.506,20.579H71.378c-.665.074-.96-.516-1.4-.885C63.486,84.827,56.921,78.262,50.356,71.7H38.923V92.277h-18Zm18,13.646V58.126H61.2a19.892,19.892,0,0,0,9-2.065,4.793,4.793,0,0,0-.3-8.04A22.857,22.857,0,0,0,60.24,46.1H38.923Z" transform="translate(-5.491 -8.536)" fill="#fff"/>
    <path id="Tracé_2" data-name="Tracé 2" d="M207.1,32.531h18.145c0,19.915,0,39.83-.148,59.746H207.025V32.531Z" transform="translate(-54.323 -8.536)" fill="#fff"/>
    <path id="Tracé_3" data-name="Tracé 3" d="M.018,15.218C-.424,7.178,7.026-.2,15.065.1H86.686A97.289,97.289,0,0,1,98.045.244C102.1,1.793,106.159,4.3,108,8.432c2.582,4.794,1.4,10.4,1.771,15.637H79.164V27.24c-4.426-2.729-9.811-3.1-14.827-3.172h-48.9V83.814h18V63.235H44.865C51.355,69.8,57.92,76.365,64.485,82.929c.443.369.811.959,1.4.885H86.171C79.31,76.955,72.525,70.1,65.665,63.235c4.794.148,9.958-.221,13.868-3.319,3.688-2.729,5.458-7.228,5.753-11.728a70.84,70.84,0,0,0-.148-10.474h19.768v46.1h4.942c-.3,4.5.517,9.22-1.106,13.572a16.36,16.36,0,0,1-12.022,9.736c-27.071.148-54.14,0-81.211,0C7.985,107.27.682,101.222.092,93.551Q-.019,54.384.018,15.218" transform="translate(0 0)" fill="#ea670f"/>
    <path id="Tracé_4" data-name="Tracé 4" d="M45.326,51.031H66.643a22.857,22.857,0,0,1,9.663,1.918c3.023,1.475,3.172,6.27.3,8.04a19.892,19.892,0,0,1-9,2.065H45.326V51.031Z" transform="translate(-11.894 -13.39)" fill="#ea670f"/>
    <path id="Tracé_5" data-name="Tracé 5" d="M132.527.277c.443,0,1.253-.148,1.622-.148H204.3c7.819-.221,14.9,6.86,14.973,14.6V91.665a15.3,15.3,0,0,1-2.729,8.851,15.564,15.564,0,0,1-12.687,6.638H135.183c-1.328,0-2.655,0-4.057-.074a16.523,16.523,0,0,0,12.023-9.736c1.623-4.352.811-9,1.106-13.572h13.056c0-15.416-.074-30.758,0-46.174h26.775V24.027h-39.9c-.3-5.237.811-10.769-1.77-15.637-1.844-4.131-5.9-6.638-9.958-8.187Zm54.656,23.751V83.773c6.048.074,12.023,0,18.071,0,.148-19.915.148-39.83.148-59.746H187.184Z" transform="translate(-34.407 -0.033)" fill="#155c2b"/>
    <path id="Tracé_6" data-name="Tracé 6" d="M4.083,157.652a1.147,1.147,0,0,1,.59.443,1.868,1.868,0,0,1,.3.516,2.152,2.152,0,0,1,.147.664,2.22,2.22,0,0,1-.221.885,1.175,1.175,0,0,1-.738.59,1.6,1.6,0,0,1,.664.516,1.778,1.778,0,0,1,.222,1.033v1.033a.623.623,0,0,0,.221.369v.148H3.787a.671.671,0,0,0-.073-.369v-1.106a1.069,1.069,0,0,0-.221-.811.979.979,0,0,0-.738-.221H1.427v2.508H.026v-6.417h3.1a2.033,2.033,0,0,1,1.032.148Zm-2.729.959v1.7H2.829a1.638,1.638,0,0,0,.664-.074.814.814,0,0,0,.369-.738.952.952,0,0,0-.369-.811,1.39,1.39,0,0,0-.591-.148H1.354Z" transform="translate(-0.007 -41.31)" fill="#8a8a8a"/>
    <path id="Tracé_7" data-name="Tracé 7" d="M10.412,157.531h1.549l2.287,6.417H12.773l-.443-1.328H9.97l-.443,1.328h-1.4l2.287-6.417m-.148,3.983h1.623l-.811-2.508-.811,2.508" transform="translate(-2.132 -41.336)" fill="#8a8a8a"/>
    <path id="Tracé_8" data-name="Tracé 8" d="M21.213,157.652a2.411,2.411,0,0,1,1.106.811,2.576,2.576,0,0,1,.443,1.033,5.726,5.726,0,0,1,.148,1.033,3.837,3.837,0,0,1-.517,2.139,2.252,2.252,0,0,1-2.138,1.18h-2.73v-6.417h2.73a1.875,1.875,0,0,1,.958.148Zm-2.508.959v4.2H19.96a1.269,1.269,0,0,0,1.327-.959,3.165,3.165,0,0,0,.221-1.254,2.917,2.917,0,0,0-.3-1.475,1.436,1.436,0,0,0-1.253-.516Z" transform="translate(-4.599 -41.31)" fill="#8a8a8a"/>
    <rect id="Rectangle_3" data-name="Rectangle 3" width="1.328" height="6.417" transform="translate(19.122 116.195)" fill="#8a8a8a"/>
    <path id="Tracé_9" data-name="Tracé 9" d="M34.315,163.279a2.73,2.73,0,0,1-2.065.738,2.626,2.626,0,0,1-2.065-.738,4.156,4.156,0,0,1,0-5.311,2.732,2.732,0,0,1,2.065-.738,2.625,2.625,0,0,1,2.065.738,4.154,4.154,0,0,1,0,5.311m-.811-.959a2.74,2.74,0,0,0,.442-1.7,2.892,2.892,0,0,0-.442-1.7,1.627,1.627,0,0,0-2.508,0,2.74,2.74,0,0,0-.443,1.7,2.892,2.892,0,0,0,.443,1.7,1.386,1.386,0,0,0,1.254.59,1.577,1.577,0,0,0,1.254-.59" transform="translate(-7.669 -41.257)" fill="#8a8a8a"/>
    <path id="Tracé_10" data-name="Tracé 10" d="M42.613,157.652a2.4,2.4,0,0,1,1.106.811,2.6,2.6,0,0,1,.443,1.033,5.848,5.848,0,0,1,.147,1.033,3.837,3.837,0,0,1-.516,2.139,2.254,2.254,0,0,1-2.14,1.18H38.925v-6.417h2.729a1.88,1.88,0,0,1,.959.148Zm-2.434.959v4.2h1.255a1.27,1.27,0,0,0,1.327-.959,3.166,3.166,0,0,0,.221-1.254,2.926,2.926,0,0,0-.294-1.475,1.44,1.44,0,0,0-1.254-.516Z" transform="translate(-10.214 -41.31)" fill="#8a8a8a"/>
    <rect id="Rectangle_4" data-name="Rectangle 4" width="1.328" height="6.417" transform="translate(34.981 116.195)" fill="#8a8a8a"/>
    <path id="Tracé_11" data-name="Tracé 11" d="M50.925,157.5H55.5v1.106H52.253v1.475h2.8v1.106h-2.8v2.655H50.925V157.5Z" transform="translate(-13.363 -41.31)" fill="#8a8a8a"/>
    <path id="Tracé_12" data-name="Tracé 12" d="M58.326,157.5H62.9v1.106H59.653v1.475h2.8v1.106h-2.8v2.655H58.326V157.5Z" transform="translate(-15.305 -41.31)" fill="#8a8a8a"/>
    <path id="Tracé_13" data-name="Tracé 13" d="M65.574,157.531H66.9v3.909a1.743,1.743,0,0,0,.148.959c.148.369.516.516,1.033.516s.885-.148,1.033-.516a2.89,2.89,0,0,0,.147-.959v-3.909h1.328v3.909a3.55,3.55,0,0,1-.3,1.623,2.451,2.451,0,0,1-2.287,1.033,2.533,2.533,0,0,1-2.287-1.033,3.183,3.183,0,0,1-.3-1.623v-3.909Z" transform="translate(-17.168 -41.336)" fill="#8a8a8a"/>
    <path id="Tracé_14" data-name="Tracé 14" d="M75.306,161.878a1.392,1.392,0,0,0,.221.664,1.269,1.269,0,0,0,1.106.369,2.076,2.076,0,0,0,.811-.074.776.776,0,0,0,.589-.738c0-.369-.073-.369-.294-.516a2.488,2.488,0,0,0-.885-.3l-.665-.148a3.262,3.262,0,0,1-1.4-.516,1.534,1.534,0,0,1-.664-1.4,1.618,1.618,0,0,1,.664-1.4,2.759,2.759,0,0,1,1.844-.59,2.661,2.661,0,0,1,1.77.516,1.764,1.764,0,0,1,.738,1.549H77.888a.908.908,0,0,0-.516-.811,2.653,2.653,0,0,0-.812-.147c-.294,0-.663,0-.811.221a.672.672,0,0,0-.3.59.558.558,0,0,0,.3.516c.148.074.442.147.885.3l1.106.3a4.215,4.215,0,0,1,1.106.443,1.621,1.621,0,0,1,.59,1.328,1.855,1.855,0,0,1-.665,1.475,2.973,2.973,0,0,1-1.917.59,3.357,3.357,0,0,1-1.992-.59,1.763,1.763,0,0,1-.738-1.549H75.38Z" transform="translate(-19.451 -41.257)" fill="#8a8a8a"/>
    <rect id="Rectangle_5" data-name="Rectangle 5" width="1.328" height="6.417" transform="translate(60.649 116.195)" fill="#8a8a8a"/>
    <path id="Tracé_15" data-name="Tracé 15" d="M90.614,163.279a2.73,2.73,0,0,1-2.065.738,2.625,2.625,0,0,1-2.065-.738,4.154,4.154,0,0,1,0-5.311,2.731,2.731,0,0,1,2.065-.738,2.625,2.625,0,0,1,2.065.738,4.154,4.154,0,0,1,0,5.311m-.811-.959a2.74,2.74,0,0,0,.442-1.7,2.892,2.892,0,0,0-.442-1.7,1.628,1.628,0,0,0-2.509,0,2.74,2.74,0,0,0-.442,1.7,2.892,2.892,0,0,0,.442,1.7,1.388,1.388,0,0,0,1.255.59,1.577,1.577,0,0,0,1.254-.59" transform="translate(-22.442 -41.257)" fill="#8a8a8a"/>
    <path id="Tracé_16" data-name="Tracé 16" d="M95.126,157.531h1.4l2.508,4.5v-4.5h1.254v6.417H98.961l-2.582-4.573v4.573H95.126Z" transform="translate(-24.961 -41.336)" fill="#8a8a8a"/>
    <path id="Tracé_17" data-name="Tracé 17" d="M111.689,157.531v1.106h-1.918v5.237h-1.328v-5.237h-1.918v-1.106Z" transform="translate(-27.952 -41.336)" fill="#8a8a8a"/>
    <path id="Tracé_18" data-name="Tracé 18" d="M119.346,157.981h-3.393v1.328h3.1v1.106h-3.1v1.623h3.541v1.18h-4.868V156.8h4.72v1.18Zm-.884-2.95-1.328,1.328h-.884l.811-1.328Z" transform="translate(-30.078 -40.68)" fill="#8a8a8a"/>
    <path id="Tracé_19" data-name="Tracé 19" d="M122.626,157.531h1.328v5.237h3.172v1.18h-4.5Z" transform="translate(-32.177 -41.336)" fill="#8a8a8a"/>
    <path id="Tracé_20" data-name="Tracé 20" d="M134.746,157.981h-3.393v1.328h3.1v1.106h-3.1v1.623h3.54v1.18h-4.869V156.8h4.721v1.18Zm-.811-2.95-1.328,1.328h-.884l.811-1.328Z" transform="translate(-34.118 -40.68)" fill="#8a8a8a"/>
    <path id="Tracé_21" data-name="Tracé 21" d="M141.63,157.531h1.4l-2.213,6.417h-1.254l-2.139-6.417h1.4l1.4,4.868Z" transform="translate(-36.06 -41.336)" fill="#8a8a8a"/>
    <rect id="Rectangle_6" data-name="Rectangle 6" width="1.328" height="6.417" transform="translate(107.634 116.195)" fill="#8a8a8a"/>
    <path id="Tracé_22" data-name="Tracé 22" d="M150.305,161.878a1.4,1.4,0,0,0,.221.664,1.269,1.269,0,0,0,1.106.369,2.076,2.076,0,0,0,.811-.074.777.777,0,0,0,.59-.738c0-.369-.074-.369-.3-.516a2.487,2.487,0,0,0-.885-.3l-.664-.148a3.263,3.263,0,0,1-1.4-.516,1.536,1.536,0,0,1-.664-1.4,1.62,1.62,0,0,1,.664-1.4,2.76,2.76,0,0,1,1.844-.59,2.665,2.665,0,0,1,1.77.516,1.765,1.765,0,0,1,.738,1.549h-1.254a.907.907,0,0,0-.516-.811,2.653,2.653,0,0,0-.811-.147c-.3,0-.664,0-.811.221a.671.671,0,0,0-.3.59.557.557,0,0,0,.3.516c.148.074.443.147.885.3l1.106.3a4.216,4.216,0,0,1,1.106.443,1.621,1.621,0,0,1,.59,1.328,1.857,1.857,0,0,1-.664,1.475,2.975,2.975,0,0,1-1.918.59,3.357,3.357,0,0,1-1.992-.59,1.765,1.765,0,0,1-.738-1.549h1.254Z" transform="translate(-39.13 -41.257)" fill="#8a8a8a"/>
    <rect id="Rectangle_7" data-name="Rectangle 7" width="1.328" height="6.417" transform="translate(116.043 116.195)" fill="#8a8a8a"/>
    <path id="Tracé_23" data-name="Tracé 23" d="M165.714,163.279a2.733,2.733,0,0,1-2.065.738,2.627,2.627,0,0,1-2.065-.738,4.156,4.156,0,0,1,0-5.311,2.733,2.733,0,0,1,2.065-.738,2.628,2.628,0,0,1,2.065.738,4.156,4.156,0,0,1,0,5.311m-.811-.959a2.741,2.741,0,0,0,.443-1.7,2.892,2.892,0,0,0-.443-1.7,1.627,1.627,0,0,0-2.508,0,2.74,2.74,0,0,0-.443,1.7,2.892,2.892,0,0,0,.443,1.7,1.387,1.387,0,0,0,1.254.59,1.576,1.576,0,0,0,1.254-.59" transform="translate(-42.148 -41.257)" fill="#8a8a8a"/>
    <path id="Tracé_24" data-name="Tracé 24" d="M170.225,157.531h1.4l2.508,4.5v-4.5h1.254v6.417h-1.328l-2.582-4.573v4.573h-1.254Z" transform="translate(-44.667 -41.336)" fill="#8a8a8a"/>
    <rect id="Rectangle_8" data-name="Rectangle 8" width="1.328" height="6.417" transform="translate(134.336 116.195)" fill="#8a8a8a"/>
    <path id="Tracé_25" data-name="Tracé 25" d="M189.23,157.531h1.4l-2.213,6.417h-1.254l-2.139-6.417h1.4l1.4,4.868Z" transform="translate(-48.551 -41.336)" fill="#8a8a8a"/>
    <path id="Tracé_26" data-name="Tracé 26" d="M198.514,163.279a2.733,2.733,0,0,1-2.065.738,2.627,2.627,0,0,1-2.065-.738,4.156,4.156,0,0,1,0-5.311,2.733,2.733,0,0,1,2.065-.738,2.627,2.627,0,0,1,2.065.738,4.156,4.156,0,0,1,0,5.311m-.811-.959a2.74,2.74,0,0,0,.443-1.7,2.892,2.892,0,0,0-.443-1.7,1.627,1.627,0,0,0-2.508,0,2.74,2.74,0,0,0-.443,1.7,2.892,2.892,0,0,0,.443,1.7,1.387,1.387,0,0,0,1.254.59,1.576,1.576,0,0,0,1.254-.59" transform="translate(-50.755 -41.257)" fill="#8a8a8a"/>
    <rect id="Rectangle_9" data-name="Rectangle 9" width="1.328" height="6.417" transform="translate(149.678 116.195)" fill="#8a8a8a"/>
    <path id="Tracé_27" data-name="Tracé 27" d="M210.608,157.652a1.147,1.147,0,0,1,.59.443,1.849,1.849,0,0,1,.295.516,2.152,2.152,0,0,1,.148.664,2.222,2.222,0,0,1-.221.885,1.172,1.172,0,0,1-.738.59,1.606,1.606,0,0,1,.664.516,1.785,1.785,0,0,1,.221,1.033v1.033a.627.627,0,0,0,.221.369v.148h-1.475a.665.665,0,0,0-.074-.369v-1.106a1.065,1.065,0,0,0-.221-.811.979.979,0,0,0-.738-.221h-1.328v2.508h-1.328v-6.417h3.1a2.038,2.038,0,0,1,1.033.148Zm-2.8.959v1.7h1.475a1.638,1.638,0,0,0,.664-.074.814.814,0,0,0,.369-.738.952.952,0,0,0-.369-.811,1.39,1.39,0,0,0-.59-.148h-1.475Z" transform="translate(-54.218 -41.31)" fill="#8a8a8a"/>
    <rect id="Rectangle_10" data-name="Rectangle 10" width="1.328" height="6.417" transform="translate(158.603 116.195)" fill="#8a8a8a"/>
    <path id="Tracé_28" data-name="Tracé 28" d="M223.246,158.611h-3.393v1.328h3.1v1.106h-3.1v1.623h3.54v1.18h-4.868v-6.417h4.721v1.18Z" transform="translate(-57.341 -41.31)" fill="#8a8a8a"/>
    <path id="Tracé_29" data-name="Tracé 29" d="M226.526,157.531h1.4l2.508,4.5v-4.5h1.254v6.417h-1.328l-2.582-4.573v4.573h-1.254Z" transform="translate(-59.44 -41.336)" fill="#8a8a8a"/>
    <path id="Tracé_30" data-name="Tracé 30" d="M235.225,157.531h1.4l2.508,4.5v-4.5h1.254v6.417h-1.328l-2.582-4.573v4.573h-1.254Z" transform="translate(-61.723 -41.336)" fill="#8a8a8a"/>
    <path id="Tracé_31" data-name="Tracé 31" d="M248.646,158.611h-3.393v1.328h3.1v1.106h-3.1v1.623h3.54v1.18h-4.868v-6.417h4.721v1.18Z" transform="translate(-64.006 -41.31)" fill="#8a8a8a"/>
  </g>
</svg>
