<svg xmlns="http://www.w3.org/2000/svg" width="31" height="31" viewBox="0 0 31 31">
  <g id="Groupe_17617" data-name="Groupe 17617" transform="translate(-35 -615.357)">
    <rect id="Rectangle_18393" data-name="Rectangle 18393" width="31" height="31" rx="15.5" transform="translate(35 615.357)" fill="#212121"/>
    <g id="tik-tok" transform="translate(44.184 624.101)">
      <g id="Groupe_17603" data-name="Groupe 17603" transform="translate(1.656 0.645)">
        <path id="Tracé_214" data-name="Tracé 214" d="M111.335,211.36a2.014,2.014,0,0,0-1.047,3.752,1.983,1.983,0,0,1-.323-1.058,2.03,2.03,0,0,1,2.043-2.048,2.11,2.11,0,0,1,.643.1v-2.259a4.44,4.44,0,0,0-.643-.048h-.031v1.661A2.11,2.11,0,0,0,111.335,211.36Z" transform="translate(-108.717 -204.586)" fill="#f00044"/>
        <path id="Tracé_215" data-name="Tracé 215" d="M336.8,24h-.6a3.451,3.451,0,0,0,1.3,2.079A3.476,3.476,0,0,1,336.8,24Z" transform="translate(-329.258 -24)" fill="#f00044"/>
        <path id="Tracé_216" data-name="Tracé 216" d="M99.777,144.362a3.5,3.5,0,0,1-.645-.062v1.619a5.566,5.566,0,0,1-2.2-.446,5.746,5.746,0,0,1-1.252-.73l.011,4.992A4.176,4.176,0,0,1,94.44,152.7a4.257,4.257,0,0,1-2.38,1.19,4.44,4.44,0,0,1-.643.048,4.262,4.262,0,0,1-2.618-.887,3.812,3.812,0,0,0,.272.295,4.276,4.276,0,0,0,3.022,1.237,4.442,4.442,0,0,0,.643-.048,4.257,4.257,0,0,0,2.38-1.19,4.176,4.176,0,0,0,1.252-2.969l-.042-4.992a5.513,5.513,0,0,0,1.252.73,5.636,5.636,0,0,0,2.2.446" transform="translate(-88.8 -140.924)" fill="#f00044"/>
      </g>
      <path id="Tracé_217" data-name="Tracé 217" d="M31.719,188.689a4.27,4.27,0,0,1,3-1.243v-.6a4.444,4.444,0,0,0-.643-.048,4.266,4.266,0,0,0-3.028,1.243,4.194,4.194,0,0,0,.006,5.971,4.275,4.275,0,0,0,.4.351,4.18,4.18,0,0,1-.982-2.691A4.231,4.231,0,0,1,31.719,188.689Z" transform="translate(-29.8 -181.586)" fill="#08fff9"/>
      <path id="Tracé_218" data-name="Tracé 218" d="M384.882,99.4v-.6h-.006a3.425,3.425,0,0,1-2.076-.7A3.428,3.428,0,0,0,384.882,99.4Z" transform="translate(-372.895 -95.375)" fill="#08fff9"/>
      <path id="Tracé_219" data-name="Tracé 219" d="M146.405,13.1a2.108,2.108,0,0,0,.758-.1,2.022,2.022,0,0,0,1.4-1.917l0-3.339v-6.1h1.605A3.494,3.494,0,0,1,150.1,1h-2.211V7.1l0,3.339a2.022,2.022,0,0,1-1.4,1.917,1.991,1.991,0,0,1-.758.1,2.059,2.059,0,0,1-.932-.283,2.047,2.047,0,0,0,1.605.932Z" transform="translate(-141.573 -1)" fill="#08fff9"/>
      <path id="Tracé_220" data-name="Tracé 220" d="M58.042,36.97a4.257,4.257,0,0,0,2.38-1.19,4.176,4.176,0,0,0,1.252-2.969l-.011-4.992a5.512,5.512,0,0,0,1.252.73,5.636,5.636,0,0,0,2.2.446V27.376a3.428,3.428,0,0,1-2.082-1.3A3.438,3.438,0,0,1,61.727,24H60.119v6.1l0,3.339a2.022,2.022,0,0,1-1.4,1.917,1.992,1.992,0,0,1-.758.1,2.047,2.047,0,0,1-1.605-.929A2.014,2.014,0,0,1,57.4,30.771a2.11,2.11,0,0,1,.643.1V29.211a4.27,4.27,0,0,0-3,1.243A4.2,4.2,0,0,0,53.8,33.437a4.149,4.149,0,0,0,.982,2.691,4.268,4.268,0,0,0,2.618.887,4.077,4.077,0,0,0,.643-.045Z" transform="translate(-53.126 -23.355)" fill="#fff"/>
    </g>
  </g>
</svg>
