<svg id="Layer_x0020_1" xmlns="http://www.w3.org/2000/svg" width="26.354" height="26.354" viewBox="0 0 26.354 26.354">
  <path id="Tracé_11050" data-name="Tracé 11050" d="M13.177,0A13.177,13.177,0,1,1,0,13.177,13.177,13.177,0,0,1,13.177,0Zm2.96,5.457a3.769,3.769,0,0,0,3.648,3.858c0,.983,0,1.7,0,2.634a6.272,6.272,0,0,1-3.653-1.293l0,5.129c.049,3.56-2.57,5.726-5.995,4.977C4.23,19,6.192,10.239,12.12,11.176c0,2.827,0,0,0,2.827-2.449-.36-3.269,1.677-2.617,3.136a2.177,2.177,0,0,0,3.882-.258,4.955,4.955,0,0,0,.144-1.254V5.444Z" fill="#fff" fill-rule="evenodd"/>
</svg>
