<svg xmlns="http://www.w3.org/2000/svg" width="31.5" height="31.5" viewBox="0 0 31.5 31.5">
  <g id="Layer_2" data-name="Layer 2" transform="translate(0.357 0.357)">
    <g id="_08.whatsapp" data-name="08.whatsapp" transform="translate(-0.357 -0.357)">
      <circle id="background" cx="15.75" cy="15.75" r="15.75" fill="#2aa81a"/>
      <g id="icon" transform="translate(7.926 7.864)">
        <path id="Tracé_223" data-name="Tracé 223" d="M51.49,40.286A7.709,7.709,0,0,0,39.14,49.2l-.818,3.971a.29.29,0,0,0,.047.231.3.3,0,0,0,.315.123l3.885-.922a7.709,7.709,0,0,0,8.915-12.321Zm-1.215,9.686a6.044,6.044,0,0,1-6.952,1.139l-.544-.27-2.386.564v-.031l.5-2.407-.266-.523a6.035,6.035,0,0,1,9.645-7.007l.027.037a6.036,6.036,0,0,1-.031,8.5Z" transform="translate(-38.299 -37.997)" fill="#fff"/>
        <path id="Tracé_224" data-name="Tracé 224" d="M64.93,63.8a2.52,2.52,0,0,1-1.335,1.163c-1.022.245-2.578,0-4.527-1.8l-.025-.022c-1.7-1.583-2.145-2.9-2.045-3.946a2.5,2.5,0,0,1,.971-1.482.556.556,0,0,1,.869.2l.628,1.419a.552.552,0,0,1-.067.564l-.319.409a.542.542,0,0,0-.043.6,5.929,5.929,0,0,0,1.078,1.2,6.374,6.374,0,0,0,1.493,1.069.542.542,0,0,0,.591-.125l.366-.372a.554.554,0,0,1,.558-.155l1.493.427a.56.56,0,0,1,.315.847Z" transform="translate(-53.165 -53.575)" fill="#fff"/>
      </g>
    </g>
  </g>
</svg>
