<svg id="Layer_2" data-name="Layer 2" xmlns="http://www.w3.org/2000/svg" width="26.354" height="26.354" viewBox="0 0 26.354 26.354">
  <g id="Layer_1_copy_6" data-name="Layer 1 copy 6">
    <g id="_128" data-name="128">
      <path id="Tracé_11048" data-name="Tracé 11048" d="M213.838,197.839l-3.659-2.11a1.006,1.006,0,0,0-1.509.871v4.225a1.006,1.006,0,0,0,1.51.869l3.659-2.11a1.006,1.006,0,0,0,0-1.745Z" transform="translate(-197.929 -185.526)" fill="#fff"/>
      <path id="Tracé_11049" data-name="Tracé 11049" d="M13.177,0A13.177,13.177,0,1,0,26.354,13.177,13.177,13.177,0,0,0,13.177,0Zm7.456,17.192a1.7,1.7,0,0,1-1.7,1.7H7.5a1.7,1.7,0,0,1-1.7-1.7V9.177a1.7,1.7,0,0,1,1.7-1.7H18.93a1.7,1.7,0,0,1,1.7,1.7Z" fill="#fff"/>
    </g>
  </g>
</svg>
